<svg width="25" height="24" xmlns="http://www.w3.org/2000/svg"><rect x=".396" width="23.871" height="23.871" rx="8"/><path d="M9.846 11.935a2.486 2.486 0 114.973 0 2.486 2.486 0 01-4.973 0zm-1.344 0a3.83 3.83 0 107.66 0 3.83 3.83 0 00-7.66 0zm6.917-3.982a.896.896 0 10.895-.895.896.896 0 00-.895.895zm-6.1 10.054c-.728-.033-1.123-.154-1.386-.256a2.319 2.319 0 01-.858-.558 2.302 2.302 0 01-.558-.858c-.102-.262-.223-.658-.257-1.385-.036-.786-.043-1.023-.043-3.015 0-1.992.008-2.227.043-3.014.034-.727.156-1.122.257-1.385.136-.349.297-.597.558-.858.261-.262.51-.423.858-.558.263-.103.658-.224 1.385-.257.787-.036 1.023-.043 3.014-.043 1.991 0 2.228.007 3.015.043.727.033 1.121.155 1.385.257.348.135.597.297.858.558.261.26.422.51.558.858.102.262.223.658.256 1.385.037.787.044 1.022.044 3.014 0 1.992-.007 2.228-.044 3.015-.033.727-.154 1.123-.256 1.385a2.312 2.312 0 01-.558.858c-.261.26-.51.422-.858.558-.263.102-.658.223-1.385.256-.787.036-1.023.044-3.015.044-1.992 0-2.228-.008-3.014-.044zM9.256 4.521c-.795.036-1.337.162-1.811.346-.49.19-.906.446-1.321.86-.416.415-.67.831-.86 1.322-.185.474-.311 1.017-.347 1.81-.037.796-.046 1.05-.046 3.076s.009 2.28.046 3.076c.036.794.162 1.336.346 1.81.19.49.445.907.86 1.322.416.414.831.67 1.322.86.475.185 1.016.31 1.81.347.796.036 1.05.045 3.076.045s2.28-.008 3.075-.045c.795-.036 1.337-.162 1.811-.347.49-.19.906-.446 1.322-.86.415-.415.669-.831.86-1.322.184-.474.31-1.016.346-1.81.037-.796.045-1.05.045-3.076 0-2.025-.008-2.28-.045-3.075-.036-.794-.162-1.337-.346-1.81a3.668 3.668 0 00-.86-1.322 3.65 3.65 0 00-1.321-.86c-.475-.185-1.017-.312-1.81-.347-.796-.036-1.05-.045-3.076-.045s-2.28.008-3.076.045z" fill="#616161"/></svg>
