<svg width="89" height="93" viewBox="0 0 89 93" fill="none" xmlns="http://www.w3.org/2000/svg">
<path d="M73.4183 37.8163C73.2989 41.9253 71.5868 45.2881 68.5609 48.0042C68.0831 48.432 67.9437 48.8001 68.0831 49.4468C68.8694 52.9588 69.2974 56.5006 68.7798 60.1022C68.6106 61.2563 68.312 62.3706 67.7944 63.4252C66.4009 66.2805 63.7532 67.4844 60.6775 66.6685C58.4279 66.0716 56.5267 64.8479 54.7649 63.3953C51.1816 60.4404 48.3746 56.819 45.8663 52.9488C45.5875 52.521 45.3088 52.0833 45.06 51.6356C44.8808 51.3072 44.6818 51.2376 44.3334 51.4067C43.5172 51.8047 42.691 52.1927 41.8449 52.5509C41.4269 52.7299 41.3472 52.9488 41.5165 53.3567C41.9146 54.3516 42.1336 55.3863 42.1535 56.4608C42.2033 59.4157 40.9093 61.6642 38.4806 63.2759C36.7088 64.4499 34.718 65.0469 32.6178 65.1364C26.3469 65.415 20.9918 63.3058 16.7216 58.6695C15.1887 57.008 14.1535 55.058 13.7852 52.7896C13.188 49.1085 15.0693 45.895 18.354 44.333C19.2598 43.9052 19.9267 43.3679 20.4742 42.5222C22.3754 39.5873 24.8538 37.1697 27.5414 34.951C30.209 32.7423 33.0657 30.8222 36.1016 29.1607C36.4599 28.9617 36.5694 28.703 36.5296 28.3051C36.3305 26.3849 36.2509 24.4647 36.4998 22.5446C36.7088 20.903 37.097 19.3211 37.9928 17.8984C39.3266 15.7593 41.6558 14.8042 44.1343 15.3116C46.563 15.8091 48.5836 17.0825 50.4749 18.6048C51.9281 19.7688 53.252 21.0721 54.4763 22.4749C54.7749 22.8132 55.0735 22.9823 55.5413 22.9624C57.5122 22.9027 59.4532 23.0321 61.3145 23.7584C62.8175 24.3453 64.0419 25.2507 64.8083 26.7033C64.9775 27.0216 65.2263 27.1709 65.5648 27.2704C69.7155 28.5339 72.3134 31.25 73.2391 35.5181C73.3984 36.2842 73.4183 37.0403 73.4183 37.8163ZM67.5058 56.8886C67.4162 54.2422 67.1375 52.2225 66.7294 50.2228C66.6 49.586 66.5402 49.5662 65.9629 49.8845C65.7439 50.0039 65.525 50.1233 65.306 50.2327C60.558 52.6802 54.3966 52.3121 50.6739 48.3225C50.435 48.0738 50.236 48.1136 49.9772 48.2728C48.8723 48.9792 47.7376 49.6358 46.5829 50.2427C46.2445 50.4218 46.1848 50.6108 46.3938 50.9491C48.6135 54.5307 51.0721 57.9134 54.1378 60.8185C55.8997 62.4899 57.8008 63.9923 60.0902 64.8877C63.3053 66.1412 65.6842 65.0667 66.799 61.8134C67.4361 60.0325 67.5157 58.1621 67.5058 56.8886ZM53.9388 24.5742C52.4059 24.7234 51.0024 24.9821 49.6188 25.3204C45.9061 26.2257 42.3924 27.6285 38.9882 29.3298C38.2218 29.7178 38.2218 29.7079 38.3711 30.5436C38.819 33.0607 39.4759 35.5281 40.3021 37.9457C41.5662 41.6567 43.1688 45.2184 45.06 48.6608C45.279 49.0687 45.488 49.1781 45.916 48.9195C46.9612 48.2827 48.0262 47.6659 49.0913 47.059C49.3998 46.8799 49.4496 46.7108 49.2704 46.3924C47.5584 43.3182 47.439 40.0947 48.5538 36.8214C49.9075 32.8518 52.595 30.0362 56.3376 28.2056C56.7557 28.0066 56.8055 27.8275 56.5267 27.4693C55.8598 26.6237 55.2129 25.7681 54.5559 24.9025C54.3767 24.6637 54.1577 24.5244 53.9388 24.5742ZM24.4656 42.9202C25.3515 42.9401 26.2275 42.9998 27.0934 43.149C32.5282 44.0743 37.1069 46.4521 40.322 51.0784C40.5211 51.3669 40.7301 51.4067 41.0387 51.2674C41.6956 50.9491 42.3725 50.6705 43.0294 50.3621C44.194 49.8149 44.0248 49.9442 43.4774 48.9294C40.4514 43.3182 38.1521 37.4482 36.9477 31.1704C36.8282 30.5336 36.7884 30.5137 36.231 30.8222C32.8368 32.7523 29.6516 34.9908 26.765 37.6273C25.0927 39.1495 23.5499 40.7911 22.226 42.6217C22.1365 42.7411 21.9473 42.8804 22.0668 43.0495C22.1564 43.1789 22.3455 43.0993 22.4948 43.0893C23.1517 43.0396 23.8087 42.9799 24.4656 42.9202ZM26.5062 56.0828C25.5307 56.1126 23.7689 55.9136 22.0867 55.2769C20.1059 54.5208 18.6427 53.2274 18.0952 51.0983C17.717 49.6159 17.8862 48.1335 18.354 46.6909C18.4137 46.5118 18.5929 46.273 18.4237 46.1437C18.2246 45.9944 18.0355 46.2432 17.8762 46.3725C15.6167 48.0738 14.7906 50.3223 15.3878 53.0782C15.7561 54.7695 16.6221 56.2221 17.7269 57.5254C20.0462 60.2514 23.0223 61.9627 26.4166 62.9576C29.4923 63.8629 32.5879 64.032 35.6736 62.9874C39.8442 61.5846 41.616 57.9631 40.1229 53.9238C39.9637 53.496 39.7546 53.3965 39.3366 53.5657C38.7991 53.7845 38.2516 53.9636 37.6942 54.1527C34.3199 55.2471 30.8958 56.0529 26.5062 56.0828ZM24.5851 44.4523C23.4105 44.4523 22.2559 44.5817 21.1311 44.8802C20.8524 44.9498 20.6733 45.099 20.5439 45.3577C20.076 46.2929 19.7177 47.2779 19.5087 48.3026C19.0309 50.7202 19.9466 52.5907 22.1763 53.6552C23.4802 54.282 24.8937 54.4909 26.327 54.5606C28.7856 54.67 31.1844 54.3118 33.5733 53.7547C35.2655 53.3567 36.9278 52.8394 38.5701 52.2524C39.1176 52.0534 39.1475 51.9738 38.7891 51.4963C38.5303 51.148 38.2815 50.7998 37.9928 50.4815C34.3796 46.5416 29.8407 44.7011 24.5851 44.4523ZM49.3501 40.5523C49.36 42.5421 49.7084 44.0743 50.4948 45.5069C50.7038 45.885 50.8929 45.9149 51.2313 45.6562C51.9679 45.099 52.7443 44.5817 53.4809 44.0146C56.3874 41.786 59.0451 39.3087 61.215 36.3339C61.4738 35.9758 61.5036 35.6872 61.2946 35.2992C60.2992 33.4089 59.2242 31.5584 58.0994 29.7477C57.8406 29.3398 57.5918 29.2701 57.1638 29.4691C55.7205 30.1655 54.3867 31.0311 53.252 32.1653C50.8133 34.5829 49.4297 37.4681 49.3501 40.5523ZM58.836 50.2725C61.434 50.2427 63.6736 49.5363 65.7539 48.2529C66.0923 48.0439 66.162 47.8251 66.0625 47.4371C65.515 45.4373 64.8481 43.4773 64.1016 41.5472C63.6238 40.3235 63.1261 39.1197 62.5587 37.9357C62.3497 37.488 62.2701 37.488 61.9516 37.876C61.7624 38.1049 61.5833 38.3436 61.3941 38.5824C58.7564 41.796 55.621 44.4623 52.2168 46.8202C51.6992 47.1784 51.6892 47.2281 52.1471 47.6659C54.0582 49.4667 56.3774 50.2427 58.836 50.2725ZM37.8933 25.2706C37.8933 25.6686 37.8933 26.0665 37.8933 26.4645C37.8933 26.6834 37.9132 26.8923 37.9331 27.1112C38.0127 28.116 38.0227 28.126 38.9285 27.6783C43.2086 25.589 47.6579 23.9872 52.386 23.2311C52.5452 23.2112 52.7543 23.2609 52.8239 23.0719C52.8837 22.8828 52.7045 22.7833 52.595 22.664C51.4503 21.4402 50.226 20.2961 48.8823 19.2912C47.4091 18.1968 45.8663 17.2218 44.0348 16.8537C41.4766 16.3264 39.5755 17.4308 38.6896 19.8981C38.0525 21.6293 37.8336 23.43 37.8933 25.2706ZM71.9352 37.9855C71.9252 35.6474 71.338 33.777 70.1933 32.1752C69.1481 30.7227 67.7745 29.688 66.1122 29.0413C65.5847 28.8324 65.4951 28.902 65.4851 29.489C65.4851 29.7079 65.4752 29.9168 65.4553 30.1357C65.296 32.1056 64.5296 33.8566 63.5442 35.5281C63.365 35.8265 63.3451 36.0852 63.5043 36.4036C65.0571 39.637 66.3511 42.9699 67.3365 46.4223C67.456 46.8401 67.5953 46.87 67.894 46.5814C70.4222 44.1439 71.8257 41.209 71.9352 37.9855ZM62.2104 28.3847C61.3941 28.3349 60.5879 28.4443 59.7916 28.6035C59.4034 28.6831 59.2839 28.8324 59.5228 29.2104C60.4784 30.7227 61.3941 32.2648 62.2203 33.8566C62.28 33.976 62.3298 34.1252 62.4791 34.1352C62.6583 34.1451 62.6981 33.9561 62.7678 33.8268C63.1759 33.0309 63.5243 32.2051 63.7432 31.3296C63.9324 30.5734 64.0518 29.8074 63.9722 29.0114C63.9324 28.6035 63.7631 28.3648 63.3152 28.3747C62.937 28.3946 62.5687 28.3847 62.2104 28.3847ZM56.905 24.4448C56.7457 24.4946 56.4571 24.3155 56.3476 24.5145C56.2182 24.7433 56.5068 24.9124 56.6362 25.0915C56.9846 25.579 57.4027 26.0168 57.6814 26.5341C58.0795 27.2704 58.5673 27.4395 59.3735 27.1908C60.3988 26.8624 61.4937 26.8426 62.5786 26.8426C62.6981 26.8426 62.8673 26.8823 62.9171 26.7132C62.9569 26.5839 62.8374 26.5043 62.7479 26.4247C62.499 26.2058 62.2502 25.9869 61.9715 25.7979C60.4585 24.8129 58.7265 24.5642 56.905 24.4448Z" fill="white"/>
<path d="M77.0714 24.9821C77.6885 25.0119 78.2957 25.0318 78.9129 25.0716C79.2712 25.0915 79.4703 24.9622 79.5399 24.5941C79.6793 23.8479 79.8386 23.1017 79.9978 22.3555C80.0277 22.1963 80.0675 22.0272 80.1471 21.8879C80.2367 21.7188 80.386 21.5795 80.5851 21.6392C80.7643 21.6889 80.7244 21.8879 80.7145 22.0272C80.6647 22.8729 80.6249 23.7185 80.5552 24.5543C80.5154 25.0219 80.6747 25.2009 81.1624 25.2208C83.5314 25.3303 85.9004 25.4696 88.2694 25.5989C88.8069 25.6287 88.8567 25.7083 88.5581 26.1859C88.1002 26.9221 87.6125 27.6285 87.2043 28.3846C86.9555 28.8423 86.6768 28.8721 86.2289 28.7328C84.5268 28.1857 82.8147 27.6683 81.1027 27.1311C80.5254 26.952 80.4358 27.0017 80.386 27.6086C80.3263 28.4543 80.2566 29.2999 80.2566 30.1456C80.2566 30.7625 80.0277 31.1405 79.4802 31.3793C79.2811 31.4589 78.9527 31.5385 78.9925 31.7972C79.0423 32.0658 79.3807 31.9961 79.5897 32.0359C82.2076 32.4836 84.8154 32.9313 87.4432 33.3393C87.9807 33.4188 88.2893 33.6278 88.3988 34.1551C88.4486 34.3938 88.5581 34.6227 88.6277 34.8615C88.7273 35.2097 88.6178 35.3589 88.2395 35.2992C86.5076 35.0007 84.7756 34.7122 83.0437 34.4237C82.4365 34.3242 81.8293 34.2148 81.2221 34.1352C80.7145 34.0655 80.6149 34.175 80.7742 34.6824C81.1126 35.7768 81.471 36.8612 81.8194 37.9457C82.0184 38.5724 82.0085 38.6122 81.3714 38.8212C80.3661 39.1495 80.4358 39.3286 80.0575 38.1645C79.4105 36.1648 78.7536 34.165 78.0966 32.1653C77.9872 31.827 78.1166 31.5086 78.1763 31.1903C78.455 29.8073 78.7337 28.4244 79.0323 27.0515C79.1119 26.7032 79.0522 26.4844 78.674 26.3749C77.1809 25.9272 75.7077 25.4397 74.2047 25.002C73.8862 24.9124 73.8862 24.7234 73.8762 24.4946C73.8364 23.1315 73.7767 21.7785 73.7668 20.4155C73.7568 19.9081 73.5577 19.719 73.07 19.6792C71.7959 19.5897 70.5218 19.4603 69.2577 19.341C69.0686 19.3211 68.7998 19.3708 68.7301 19.1619C68.6605 18.9629 68.9292 18.8833 69.0288 18.744C69.7454 17.8088 70.6512 17.4805 71.8158 17.7989C72.2239 17.9083 72.6718 17.8586 73.0998 17.9083C73.5378 17.958 73.717 17.7591 73.707 17.3412C73.6871 16.5652 73.6772 15.7792 73.6374 15.0032C73.6174 14.6649 73.707 14.3963 73.9758 14.1774C74.3242 13.8889 74.6327 13.5606 74.9712 13.272C75.1105 13.1527 75.23 12.8741 75.439 12.9935C75.6182 13.093 75.5385 13.3616 75.5385 13.5506C75.5684 14.645 75.5684 15.7394 75.6182 16.8338C75.6779 18.2665 75.5286 18.1471 76.9918 18.2565C78.0966 18.3461 79.2015 18.4654 80.3064 18.5749C80.4457 18.5848 80.6349 18.555 80.6846 18.744C80.7244 18.8933 80.5751 18.9728 80.4756 19.0624C80.1272 19.3907 79.7689 19.7091 79.4205 20.0473C79.2314 20.2364 79.0024 20.2364 78.7735 20.2165C77.9473 20.1468 77.1212 20.0772 76.295 19.9976C75.857 19.9479 75.6878 20.117 75.7177 20.5547C75.7476 21.1815 75.6978 21.8183 75.7675 22.4451C75.8371 23.1315 75.658 23.6588 75.0906 24.0867C74.8816 24.2359 74.4834 24.415 74.583 24.6935C74.6925 25.002 75.1105 24.8726 75.3892 24.8925C75.9466 24.9323 76.504 24.9622 77.0714 24.9821C77.0714 24.992 77.0714 24.992 77.0714 24.9821Z" fill="white"/>
<path d="M84.8751 66.9969C84.905 67.0267 84.9349 67.0566 84.9647 67.0864C85.0643 67.1859 85.1737 67.2854 85.2733 67.3749C85.2733 67.4346 85.2733 67.5043 85.2733 67.564C84.7358 68.2902 84.3575 69.0961 83.9096 69.8721C83.5015 70.5785 83.5015 70.5984 82.7152 70.3199C81.68 69.9617 80.6448 69.6035 79.6096 69.2454C78.236 68.7678 76.8624 68.3002 75.4887 67.8326C75.6082 68.0017 75.7575 68.1012 75.9167 68.1908C77.8179 69.2653 79.729 70.3497 81.6302 71.4242C82.8247 72.1007 82.755 71.8321 82.0682 73.1354C81.8691 73.5135 81.68 73.5632 81.2918 73.3543C80.0476 72.6678 78.8432 71.8918 77.5492 71.2949V71.3148C76.8325 70.7875 76.0561 70.3795 75.2498 70.0114L75.2598 70.0214C75.0906 69.8224 74.8716 69.7329 74.6327 69.6533C74.4137 69.4443 74.145 69.3249 73.8663 69.2056L73.8762 69.2255C73.8762 69.2255 73.9061 69.2155 73.8961 69.2155C73.8762 68.9867 74.0454 68.8076 74.0753 68.5887H74.0554C74.6825 67.7431 75.1304 66.7979 75.638 65.8826L75.6281 65.8925C75.8968 65.9025 76.1457 65.9821 76.3945 66.0716C78.6938 66.8675 80.9832 67.6635 83.2825 68.4594C83.4717 68.5191 83.6608 68.6584 83.9594 68.4992C82.8844 67.6635 81.9288 66.778 80.8538 66.0318L80.8339 66.0418C80.7344 65.8627 80.5751 65.7532 80.3959 65.6637C80.3462 65.6239 80.2864 65.5841 80.2367 65.5443C80.1371 65.4349 80.0376 65.3155 79.9281 65.2259C79.2015 64.629 78.4848 64.0122 77.7283 63.455C77.3401 63.1665 77.3003 62.9178 77.5591 62.5198C77.9971 61.8234 78.3952 61.0971 78.7735 60.3609C78.9726 59.9828 79.1716 59.9331 79.5499 60.142C80.386 60.5997 81.1823 61.1468 82.0682 61.515C82.2473 61.6344 82.4166 61.7637 82.5957 61.8731C83.7603 62.5298 84.915 63.1864 86.0795 63.843C86.9455 64.3305 86.9455 64.3305 86.5275 65.2558C86.5175 65.2856 86.5076 65.3155 86.5076 65.3553V65.3652C86.2288 65.6438 86.0994 66.2507 85.4923 65.8328V65.8428C85.0742 65.4946 84.6064 65.2458 84.0987 65.0469H84.0888C83.9992 64.9772 83.9196 64.8877 83.82 64.8379C82.1777 63.9226 80.5353 63.0173 78.8929 62.102H78.9029C79.3508 62.7088 79.9878 63.1068 80.5652 63.5645C81.6899 64.4798 82.7749 65.4448 83.9594 66.2805C84.0589 66.4198 84.1883 66.5293 84.3575 66.579C84.4969 66.7879 84.6761 66.9073 84.8751 66.9969Z" fill="white"/>
<path d="M33.1354 90.7253C33.1354 90.6955 33.1254 90.6756 33.1155 90.6557C33.0458 88.9146 32.8766 87.1735 32.6676 85.4325C32.3889 85.9697 32.1599 86.5069 31.8414 87.0143C31.2044 88.0391 30.2886 88.7654 29.343 89.4519C29.1738 89.5215 29.0145 89.5911 28.8453 89.6508C28.6661 89.7205 28.5069 89.6906 28.4372 89.5016C28.1286 88.7256 27.7404 87.9794 27.5613 87.1636C28.8951 87.5118 29.562 87.2631 30.3284 86.0891C30.6171 85.6414 30.8361 85.1638 31.0053 84.6564C31.3736 83.5819 31.4134 82.4776 31.3338 81.3633C31.3039 80.9753 31.4333 80.8957 31.7916 80.9952C32.4784 81.1743 33.1752 81.3434 33.872 81.4926C34.2403 81.5722 34.4095 81.7613 34.4194 82.1393C34.4393 82.6169 34.4891 83.0944 34.5289 83.5819C34.6583 85.1837 34.7877 86.7855 34.9171 88.3873C34.9271 88.4968 34.8773 88.646 35.0266 88.6858C35.166 88.7256 35.2058 88.5664 35.2755 88.4868C35.3153 88.4371 35.3451 88.3674 35.375 88.3177C36.3505 86.686 37.3359 85.0444 38.3114 83.4128C38.7394 82.6965 38.7394 82.6965 39.5357 82.8755C39.9736 82.975 40.4116 83.0845 40.8396 83.1939C41.6558 83.4028 41.6757 83.4028 41.6757 84.2485C41.6857 86.6064 41.188 88.8549 40.1528 90.984C39.4063 92.5162 39.7248 92.2873 38.1521 91.9391C37.6843 91.8396 37.6445 91.6605 37.8535 91.2626C38.5901 89.82 39.1276 88.3077 39.4262 86.7159C39.5556 86.0095 39.6949 85.3031 39.685 84.5669C39.4262 84.6067 39.3864 84.7559 39.3167 84.8853C38.8588 85.6414 38.4009 86.3876 37.963 87.1437C37.2264 88.4172 36.3903 89.6409 35.7333 90.9641C35.6637 91.0636 35.594 91.1631 35.5343 91.2626C35.4646 91.2725 35.4049 91.2825 35.3352 91.2924C34.5886 91.1034 33.862 90.9144 33.1354 90.7253Z" fill="white"/>
<path d="M25.7497 86.5965C25.7796 86.6263 25.8194 86.6661 25.8493 86.696C25.8393 86.9049 25.7398 87.0641 25.6303 87.2332C25.2222 87.85 24.824 88.4669 24.4259 89.0937C24.0277 89.7105 24.0277 89.7105 23.3807 89.3722C23.321 89.3324 23.2513 89.3026 23.1916 89.2628C23.0025 88.9942 22.5844 88.9643 22.5048 88.5863H22.4849C22.5148 88.5564 22.5446 88.5166 22.5745 88.4768L22.5844 88.4569C22.8233 88.2182 22.9925 87.9296 23.1319 87.6212C23.1319 87.6212 23.1419 87.6113 23.1319 87.6113C23.4604 87.3426 23.4007 87.1238 23.0523 86.9347C22.9129 86.8551 22.7736 86.7556 22.6342 86.6661C21.9175 86.2084 21.9374 86.2184 22.3754 85.512C23.0025 84.5072 23.7391 83.572 24.2865 82.5074C24.8738 81.811 25.3018 81.0051 25.8095 80.2589C25.9389 80.0699 25.8791 79.9207 25.7 79.8013C24.8639 79.274 24.0875 78.6571 23.1916 78.2094C23.0622 78.1099 22.9428 77.9905 22.8134 77.9109C21.5293 77.0653 21.5194 77.0653 20.8425 78.478H20.8525C20.7629 78.5875 20.6534 78.6969 20.5738 78.8163C19.7277 80.0997 18.8916 81.3732 18.0555 82.6566C17.6076 83.3332 17.6076 83.3332 16.9407 82.9253C16.8113 82.8457 16.6719 82.8059 16.5425 82.7462L16.5624 82.7362C16.2439 82.3582 16.015 82.4477 15.7661 82.8357C14.9399 84.1092 15.2485 83.95 13.9048 83.1242C13.646 82.9651 13.6061 82.7561 13.7256 82.4975L13.7355 82.4875C14.1237 82.0597 14.4024 81.5423 14.721 81.0648C15.4277 79.9803 15.4277 79.9704 16.5325 80.6071C16.7515 80.7365 16.9307 80.7663 17.08 80.5275C17.9758 79.1347 18.9414 77.8015 19.7576 76.3589H19.7476C20.1657 75.8614 20.524 75.3242 20.8127 74.7372C21.1013 74.6974 21.3104 74.8765 21.5293 75.0158C22.7138 75.752 23.8287 76.5977 25.0729 77.2543H25.053C25.3516 77.5329 25.7 77.7418 26.0683 77.9209V77.9109C26.118 77.9806 26.1778 78.0303 26.2773 78.0104L26.2574 78.0204C26.4565 78.2393 26.6954 78.3885 26.9741 78.488H26.984C27.3125 78.8163 27.7206 79.0352 28.1187 79.264C28.5069 79.4928 28.5468 79.7117 28.288 80.0898C27.5812 81.1444 26.9143 82.2189 26.2375 83.2834L26.2275 83.3133C26.0583 83.4526 25.9488 83.6416 25.8692 83.8505C25.5606 84.1689 25.3516 84.5669 25.1127 84.935C24.4856 85.9 24.4856 85.9 25.5407 86.3975L25.5507 86.3676C25.5706 86.5069 25.6502 86.5666 25.7497 86.5965Z" fill="white"/>
<path d="M46.6128 68.5688C48.9818 68.6086 51.3508 68.728 53.6601 69.3647C54.2374 69.5239 54.8047 69.7129 55.2925 70.0811C56.248 70.8073 56.2182 71.8221 55.2129 72.4887C54.2175 73.1553 53.0728 73.3642 51.9281 73.5533C48.3149 74.1204 44.7017 74.1104 41.0884 73.5533C40.1329 73.404 39.1972 73.1951 38.3213 72.7673C37.7042 72.4688 37.1069 72.1007 37.1069 71.2849C37.1069 70.479 37.6942 70.091 38.3113 69.7826C39.1773 69.3548 40.1229 69.1558 41.0785 68.9966C42.9 68.6882 44.7514 68.5588 46.6128 68.5688ZM46.5133 72.4688C48.1357 72.439 49.7582 72.3793 51.3707 72.1306C52.2068 72.0012 53.033 71.8221 53.8293 71.5237C53.9587 71.4739 54.1577 71.4341 54.1677 71.2749C54.1777 71.0859 53.9786 71.066 53.8492 71.0163C53.3515 70.8272 52.8439 70.678 52.3163 70.5785C48.7927 69.9119 45.2591 69.9318 41.7155 70.3994C40.8794 70.5089 40.0433 70.6879 39.2569 70.9864C39.1076 71.0461 38.8887 71.076 38.8986 71.2749C38.9086 71.4441 39.0977 71.4739 39.237 71.5237C39.4759 71.6033 39.7049 71.6829 39.9438 71.7525C42.1037 72.3494 44.3135 72.4091 46.5133 72.4688Z" fill="white"/>
<path d="M1.99996 30.8023C2.08954 30.7923 2.17913 30.7724 2.27867 30.7625C2.57728 30.9515 2.92566 31.0112 3.25414 31.1107C3.59256 31.2102 3.65229 31.3793 3.55275 31.6977C3.25414 32.6627 2.97543 33.6278 2.68677 34.5929C2.36825 35.6574 2.38816 35.6773 3.47312 35.926C3.83145 36.0056 4.02058 35.926 4.11016 35.538C4.359 34.5232 4.70739 33.5482 5.28471 32.6627C5.31457 32.6329 5.34443 32.6031 5.36434 32.5732C6.27013 31.6081 7.35509 31.5087 8.54954 31.8867C8.58936 31.8967 8.62917 31.9166 8.66899 31.9265C9.3558 32.3543 9.96298 32.8518 10.1421 33.7074C10.2715 34.3043 10.2317 34.8913 10.1023 35.4783C9.83358 36.6921 9.41552 37.8661 9.08705 39.0699C8.9676 39.5176 8.73866 39.5574 8.35047 39.438C5.84212 38.6819 3.33377 37.9357 0.825415 37.1896C0.178419 37.0005 0.168466 36.9508 0.357587 36.324C0.914999 34.4934 1.4525 32.6528 1.99996 30.8023ZM8.47987 35.1301C8.49977 34.2347 8.15139 33.7571 7.5243 33.6079C7.00671 33.4786 6.56874 33.7273 6.26017 34.3342C5.96156 34.9112 5.81226 35.538 5.63309 36.1648C5.56341 36.4036 5.64304 36.5528 5.87198 36.6225C6.42939 36.7916 6.97685 36.9607 7.53426 37.1199C7.73333 37.1796 7.95232 37.1697 8.02199 36.911C8.19121 36.2643 8.46991 35.6276 8.47987 35.1301Z" fill="white"/>
<path d="M45.8563 4.51691C45.8762 4.54676 45.9061 4.58656 45.926 4.61641C46.5929 5.50187 46.8616 6.49677 46.7024 7.60112C46.4436 9.38199 44.9007 10.6455 43.0493 10.5659C41.2577 10.4963 39.7944 9.09347 39.6949 7.32254C39.6153 5.77049 39.5556 4.21844 39.5058 2.65645C39.4859 2.00976 39.4162 1.36307 39.4958 0.726332C41.2975 0.656689 43.0991 0.587046 44.9007 0.527352C45.8563 0.497504 45.8364 0.517403 45.8762 1.45261C45.8961 1.94011 45.7169 2.08935 45.2491 2.0993C44.1542 2.1192 43.0692 2.17889 41.9743 2.21869C41.7653 2.22864 41.4866 2.19879 41.4567 2.47736C41.4169 2.88527 41.3572 3.30313 41.5563 3.69114C41.606 3.79064 41.7354 3.74089 41.835 3.71104C43.0692 3.28323 44.2438 3.42252 45.3686 4.07916L45.3885 4.09906C45.4482 4.13885 45.5079 4.1687 45.5676 4.20849H45.5477C45.5875 4.30799 45.6672 4.36768 45.7568 4.40748C45.7966 4.44727 45.8264 4.47712 45.8563 4.51691ZM43.2783 5.29294C42.2331 5.27304 41.5165 5.93963 41.4866 6.93453C41.4567 7.97918 42.1535 8.73531 43.1588 8.7751C44.1741 8.80495 44.9306 8.07867 44.9406 7.05392C44.9605 5.99932 44.3035 5.31284 43.2783 5.29294Z" fill="white"/>
<path d="M3.47314 65.6139C3.26411 65.6438 3.16457 65.5542 3.09489 65.4348C2.89582 65.0568 2.68679 64.6688 2.50762 64.2807C2.35831 63.9624 2.5773 63.843 2.81619 63.7137C5.02593 62.5994 7.22571 61.4851 9.43545 60.3708C10.5105 59.8335 10.5105 59.8435 11.0579 60.908C11.894 62.5596 12.7401 64.2211 13.5961 65.8626C13.7852 66.2208 13.7355 66.4198 13.3672 66.6088C10.9484 67.8226 8.53961 69.0364 6.13079 70.2701C5.79237 70.4492 5.57338 70.3795 5.42408 70.0313C5.29468 69.7428 5.15532 69.4642 4.99606 69.1856C4.79699 68.8474 4.87662 68.6583 5.225 68.4792C7.03659 67.5739 8.83822 66.6586 10.6399 65.7433C11.3764 65.3652 11.3764 65.3652 11.0081 64.629C10.7294 64.0619 10.4209 63.5147 10.1621 62.9376C9.963 62.4999 9.71415 62.4601 9.30605 62.669C7.49446 63.6042 5.67292 64.5195 3.85138 65.4348C3.70207 65.5144 3.56272 65.5741 3.47314 65.6139Z" fill="white"/>
<path d="M77.8179 72.8668C77.8478 72.8966 77.8776 72.9265 77.9174 72.9563C78.236 73.5334 78.3355 74.1602 78.3255 74.8168C78.3056 75.752 78.0269 76.6375 77.8179 77.5329V77.5727C77.5392 78.0801 77.2704 78.5875 76.9917 79.0949H77.0017C76.8026 79.2342 76.6533 79.4132 76.5339 79.6222C76.504 79.652 76.4642 79.6918 76.4343 79.7217V79.7117C76.2651 79.7615 76.1357 79.8709 76.0362 80.0102C74.4734 80.9454 72.851 81.0847 71.1588 80.3883L71.1389 80.3982C70.91 80.1893 70.6512 80.04 70.3725 79.9107C69.2577 78.9655 68.8097 77.8115 69.2079 76.3688C69.606 74.9362 70.0241 73.5135 69.9942 71.9813C69.9743 71.2152 70.4222 70.9765 71.119 71.2948C71.7959 71.6033 72.4429 71.9714 73.1098 72.3096C74.2544 72.8767 75.4389 73.1653 76.713 72.7374C77.1012 72.6081 77.4596 72.6778 77.8179 72.8668ZM76.3149 75.2148C76.3049 75.0158 76.3049 74.8864 76.295 74.7571C76.1755 73.9015 75.8968 73.7522 75.1403 74.1701C74.3241 74.6178 73.5179 74.5681 72.7216 74.1303C72.2836 73.8915 71.9054 73.5632 71.547 73.2249C71.4475 73.1354 71.348 72.9563 71.1787 73.0558C71.0195 73.1553 71.0991 73.3344 71.1389 73.4637C71.3977 74.3293 71.2584 75.165 70.9697 76.0007C70.8901 76.2196 70.8304 76.4484 70.7905 76.6773C70.691 77.1946 70.8005 77.6523 71.1588 78.0602C72.1741 79.1844 73.9658 79.3138 75.1105 78.3189C76.066 77.4732 76.1755 76.3092 76.3149 75.2148Z" fill="white"/>
<path d="M43.6267 85.4026C43.6765 85.3429 43.7362 85.2832 43.786 85.2235C43.8556 85.1439 43.9154 85.0742 43.985 84.9946C44.423 84.6564 44.7714 84.2385 45.0899 83.8008C45.1198 83.7709 45.1397 83.7411 45.1695 83.7112C45.1994 83.6714 45.2392 83.6316 45.2691 83.5918V83.6018C45.4184 83.5122 45.5378 83.3928 45.5975 83.2237V83.2337C45.8762 82.9949 46.145 82.9252 46.4436 83.2337C46.5431 83.3332 46.6925 83.3829 46.8219 83.4525V83.4426C46.8915 83.5819 47.001 83.6714 47.1503 83.7112C47.2001 83.7908 47.2598 83.8406 47.3594 83.8107L47.3295 83.8207V83.8505C47.5286 84.139 47.7177 84.1589 47.9566 83.8803C48.2253 83.5719 48.5239 83.2834 48.8027 82.975C49.0216 82.7263 49.2207 82.7263 49.4795 82.9252C49.7881 83.164 50.0767 83.4525 50.4351 83.6117C50.5645 83.8008 50.7337 83.9301 50.9328 84.0097C51.1517 84.2684 51.4205 84.4673 51.7191 84.6265V84.6166C51.8186 84.7658 51.948 84.8753 52.1272 84.9151V84.9051C52.177 84.9847 52.2367 85.0444 52.3362 85.0145L52.3064 85.0046L52.2964 85.0344C52.3661 85.1737 52.4756 85.2633 52.6349 85.3031C52.9235 85.5717 52.9036 85.8204 52.6149 86.089C52.3362 86.3477 52.0973 86.6561 51.8485 86.9347C51.6992 87.0939 51.6494 87.2531 51.8386 87.4023C52.2566 87.7207 52.6149 88.1186 53.1226 88.3176L53.1524 88.3077L53.1425 88.2778C53.1226 88.3773 53.1724 88.4271 53.252 88.4669C53.2321 88.6857 53.0828 88.8151 52.9534 88.9643C52.605 89.3523 52.2566 89.7503 51.9182 90.1482C51.8983 90.1781 51.8684 90.2079 51.8485 90.2378C51.4105 90.6158 51.0124 91.0138 50.7138 91.5113L50.7237 91.5013C50.5346 91.5809 50.4052 91.7202 50.3256 91.9092V91.8993C49.9772 92.1679 49.7582 91.8197 49.4795 91.7401C49.37 91.5411 49.1809 91.4317 49.0117 91.3023C48.2353 90.6855 48.2253 90.6855 47.648 91.5411C47.5883 91.6008 47.5286 91.6605 47.4688 91.7301C47.429 91.7699 47.3992 91.8097 47.3594 91.8495C47.3295 91.8794 47.2996 91.9192 47.2698 91.949C46.9313 92.337 46.6327 92.2972 46.2445 91.9689C45.8563 91.6307 45.4681 91.2725 44.9904 91.0437C44.6619 90.6556 44.2538 90.3671 43.8158 90.1184C43.6864 89.999 43.557 89.8597 43.4177 89.7503C42.92 89.3424 42.92 89.3125 43.3679 88.835C43.567 88.6161 43.766 88.3873 43.9751 88.1883C44.3035 87.8799 44.3334 87.6311 43.9253 87.3725C43.6665 87.2033 43.4276 86.9944 43.1688 86.8153C42.8403 86.5865 42.7309 86.3577 43.0792 86.0293C43.2883 85.8503 43.4475 85.6115 43.6267 85.4026ZM51.4105 87.263C51.3508 87.064 51.2115 86.9745 51.0821 86.875C50.0767 86.089 49.0614 85.323 48.076 84.5171C47.7575 84.2584 47.5684 84.338 47.3295 84.5967C46.4934 85.512 45.6573 86.4273 44.8012 87.3327C44.5126 87.6411 44.5225 87.8202 44.861 88.0689C45.8663 88.825 46.8617 89.5911 47.8272 90.397C48.1457 90.6656 48.3249 90.6855 48.6036 90.3771C49.4696 89.422 50.3554 88.4768 51.2214 87.5217C51.301 87.4521 51.3508 87.3526 51.4105 87.263Z" fill="white"/>
<path d="M5.88194 22.9227C6.81759 22.9227 7.69353 23.2609 8.59932 23.4599C10.5403 23.8877 12.4614 24.3653 14.4024 24.813C15.2285 25.002 15.2385 24.9921 14.8204 25.7382C14.2531 26.753 14.263 26.7332 13.0984 26.4745C11.3167 26.0765 11.7646 25.8079 10.8091 27.4694C10.5304 27.9569 10.2716 28.4543 9.98289 28.9418C9.82363 29.2105 9.85349 29.4293 10.0824 29.6482C10.4905 30.0362 10.8688 30.4541 11.2868 30.8322C11.6054 31.1207 11.7049 31.3992 11.4361 31.7773C11.2968 31.9763 11.2072 32.2151 11.1077 32.4439V32.4737C10.8588 32.8518 10.6398 32.7424 10.3711 32.4638C9.09701 31.1505 7.80302 29.8571 6.50903 28.5538C6.14074 28.1857 5.80231 27.7679 5.36434 27.4694C5.29467 27.3201 5.18517 27.2107 5.03587 27.1411L5.00601 27.1212C4.92638 26.9321 4.77707 26.7928 4.62776 26.6735C4.19975 26.3352 4.15994 25.9969 4.45855 25.5293C4.81688 24.9622 5.17522 24.3752 5.42406 23.7385L5.41411 23.7285C5.63309 23.5097 5.76249 23.2211 5.88194 22.9227ZM9.70419 25.8974C9.7241 25.7084 9.5947 25.6587 9.4653 25.6288C8.22107 25.3403 6.97685 25.0518 5.74259 24.7533C5.64305 24.7334 5.53356 24.6936 5.47383 24.7931C5.3942 24.9224 5.50369 25.012 5.58332 25.0916C6.45926 25.977 7.33519 26.8525 8.20117 27.738C8.42015 27.9668 8.59932 27.937 8.74863 27.6684C9.04724 27.1311 9.34585 26.5939 9.63451 26.0566C9.66437 26.0069 9.68428 25.9472 9.70419 25.8974Z" fill="white"/>
<path d="M17.9957 73.2449C17.926 74.5979 17.2492 76.0604 15.7262 76.9658C14.1336 77.9209 12.4315 78.0701 10.7693 77.1051C9.17666 76.1898 8.54958 74.3293 9.08708 72.3296C9.85352 69.4941 13.0487 67.9719 15.7362 69.1459C17.1895 69.7826 18.0156 71.1257 17.9957 73.2449ZM11.1575 76.5479C11.6153 76.5479 12.0433 76.3987 12.4415 76.1898C13.8748 75.4436 15.0693 74.399 16.1344 73.2051C16.5524 72.7375 16.9307 72.2201 17.07 71.5933C17.279 70.688 16.6719 69.9219 15.7462 69.9219C15.4475 69.9219 15.1489 69.9617 14.8702 70.091C12.989 70.9566 11.4859 72.2798 10.2517 73.9214C10.0725 74.1502 9.95306 74.4387 9.86347 74.7273C9.57481 75.7023 10.172 76.5479 11.1575 76.5479Z" fill="white"/>
<path d="M55.0437 82.1095C55.1034 82.0398 55.1631 81.9702 55.2229 81.9006C55.4717 81.6817 55.7106 81.4628 55.9594 81.2439L55.9694 81.2539C56.2083 81.1146 56.4472 80.9653 56.6861 80.8261H56.7159C57.8009 80.4082 58.9157 80.249 60.0604 80.5674C60.3291 81.5921 60.8169 82.5472 61.006 83.5919V83.5819C60.8069 83.4029 60.6178 83.2238 60.4187 83.0646C59.3139 82.199 57.6516 82.3483 56.8851 83.373C56.8055 83.4327 56.7159 83.4825 56.6562 83.562C56.0092 84.4475 55.9495 85.4026 56.4273 86.3677C56.905 87.3228 57.7412 87.8202 58.7963 87.8003C59.8713 87.7804 60.6875 87.273 61.1852 86.298C61.3643 85.9498 61.3743 85.5419 61.5335 85.0544C61.9417 86.0493 62.2403 86.9447 62.509 87.86C62.5687 88.059 62.4294 88.1983 62.3099 88.3376C61.9616 88.7455 61.5136 89.034 61.0956 89.3524C59.7021 90.019 58.2787 90.0488 56.8254 89.5514C56.2381 89.1832 55.6608 88.8052 55.1532 88.3276L55.1631 88.3376C54.4266 87.2929 53.9488 86.1687 54.0184 84.8455C54.0782 83.8207 54.5062 82.9551 55.0437 82.1095Z" fill="white"/>
<path d="M59.4133 8.984C59.4432 8.95415 59.4731 8.91435 59.5029 8.88451C60.4983 7.78016 61.4539 6.64597 62.3397 5.45209V5.44214C62.6583 5.05413 62.9967 5.00438 63.4546 5.26306C64.1613 5.66102 64.8979 6.00923 65.6444 6.3276C66.1222 6.52658 66.2118 6.79521 66.1023 7.29266C65.505 9.90926 64.9476 12.5259 64.3803 15.1425C64.2608 15.7095 64.1712 15.7692 63.6636 15.5305C63.4546 15.431 63.2555 15.3116 63.0365 15.232C62.6085 15.0728 62.4691 14.8241 62.5786 14.3565C62.9668 12.6651 63.3451 10.9639 63.6835 9.26257C63.8925 8.20797 64.2409 7.18322 64.2907 6.09878L64.3106 6.07888L64.3006 6.10872C64.1314 6.26791 63.9523 6.41714 63.8029 6.58628C62.8673 7.72047 61.9217 8.84471 60.996 9.98885C60.3291 10.8047 59.6025 11.5807 59.0152 12.4562C58.6369 12.9736 58.199 12.9835 57.7013 12.6253C57.5818 12.5358 57.4325 12.496 57.2932 12.4363C56.9548 12.2871 56.8751 12.098 57.1538 11.7996C57.4126 11.521 57.6714 11.2325 57.8506 10.8942C58.4279 10.3072 58.9455 9.66053 59.4133 8.984Z" fill="white"/>
<path d="M25.9786 12.8841V12.8642C25.6103 12.1379 25.3814 11.3718 25.6103 10.5759C25.7298 10.1481 25.6203 9.93916 25.2719 9.69043C23.8585 8.67563 23.7788 6.9047 25.0529 5.73072C25.1624 5.63123 25.262 5.52179 25.3615 5.41235C26.1578 4.97459 26.9641 4.54678 27.8599 4.3478C28.5467 4.19857 28.6562 4.25826 28.9349 4.86515C29.0842 5.19347 29.2335 5.53174 29.3828 5.86006L29.3629 5.87995C28.3874 5.76057 27.4816 5.9695 26.6853 6.55649C26.108 6.97435 25.9587 7.56134 26.2474 8.11849C26.4863 8.57614 26.7252 8.63584 27.1532 8.34731C27.6509 8.00905 28.1486 7.70063 28.7756 7.67078C29.2634 7.65088 29.6615 7.77027 29.8606 8.26772C30.0298 8.71543 29.9104 9.14324 29.4824 9.51135C29.0444 9.88942 28.5069 10.0585 27.9495 10.1779C27.3025 10.3172 27.1432 10.6057 27.3722 11.2325C27.5911 11.8195 28.0192 12.1379 28.6462 12.1677C29.2833 12.1976 29.8506 12.0086 30.3583 11.6305V11.6404C30.7763 11.4315 31.1546 11.1927 31.3537 10.745L31.3636 10.7251C31.4731 10.6455 31.5926 10.5759 31.702 10.5063H31.712C31.7817 10.6555 31.8215 10.8147 31.9111 10.954C32.3391 11.6205 32.349 12.2374 31.712 12.7746C31.4831 12.9139 31.274 13.0632 31.0351 13.1825C29.6018 13.9287 28.1386 14.4361 26.5759 13.5308V13.5208C26.3867 13.3019 26.1877 13.093 25.9786 12.8841Z" fill="white"/>
<path d="M30.4877 3.32307C30.5076 3.32307 30.5275 3.32307 30.5375 3.30317C30.6967 3.27333 30.866 3.26338 31.0252 3.22358C32.9065 2.77588 34.7977 2.31822 36.679 1.87051C37.8137 1.60189 37.8137 1.60189 38.0426 2.75598C38.0526 2.78582 38.0526 2.82562 38.0625 2.85547C38.1322 3.15394 38.0227 3.32307 37.7141 3.38277C37.1468 3.5121 36.5894 3.67129 36.022 3.78073C35.5442 3.87027 35.4646 4.10905 35.5741 4.55675C36.022 6.30778 36.4301 8.06876 36.8482 9.81979C37.1866 11.2425 37.1766 11.2326 35.7134 11.4813C35.3651 11.541 35.1958 11.4614 35.1063 11.1032C34.6484 9.12336 34.1607 7.1435 33.6928 5.1537C33.5137 4.41747 33.4639 4.38762 32.7174 4.5667C32.0604 4.72589 31.4134 4.96466 30.7266 4.97461L30.7366 4.98456C30.7266 4.41747 30.418 3.90012 30.4877 3.32307Z" fill="white"/>
<path d="M3.90118 51.0784C3.6822 51.0983 3.59261 51.2276 3.49307 51.3371C3.24423 51.6256 2.99539 51.9141 2.7565 52.2126C2.58728 52.4215 2.42802 52.4215 2.20904 52.2723C1.20371 51.5659 1.19375 51.556 1.9801 50.6406C2.58728 49.9243 2.58728 49.9243 1.89052 49.3473C1.88056 49.3373 1.86066 49.3274 1.8507 49.3174C0.925001 48.5513 0.925001 48.4618 1.81089 47.636C1.99005 47.4669 2.13936 47.447 2.31853 47.6161C2.61714 47.8748 2.93566 48.1136 3.23428 48.3822C3.48312 48.611 3.6822 48.611 3.89123 48.3325C4.13012 48.034 4.38891 47.7554 4.61785 47.457C4.80697 47.2182 4.98614 47.1684 5.24494 47.3774C6.29008 48.2529 6.22041 48.0439 5.45397 48.9792C5.35443 49.0985 5.26485 49.2179 5.16531 49.3274C4.92642 49.586 4.94633 49.8248 5.22503 50.0437C5.51369 50.2725 5.78244 50.5113 6.06115 50.7401C6.30004 50.9292 6.3299 51.1082 6.14078 51.3669C5.44401 52.3121 5.45397 52.3121 4.52827 51.556C4.32919 51.3769 4.14007 51.158 3.90118 51.0784Z" fill="white"/>
<path d="M85.5022 51.357C85.4325 51.3968 85.323 51.4465 85.2335 51.5261C85.0145 51.7052 84.8055 51.8942 84.5865 52.0733C84.0092 52.5608 84.0091 52.5508 83.5115 51.9937C82.9441 51.3669 82.9541 51.3669 83.5911 50.8098C84.6462 49.8944 84.5964 50.1233 83.6807 49.0587C83.5214 48.8697 83.183 48.6807 83.3323 48.4021C83.5513 48.0141 83.9295 47.7455 84.3277 47.5365C84.4571 47.4768 84.5566 47.636 84.6462 47.7355C84.905 48.0141 85.1638 48.2927 85.4027 48.5911C85.6316 48.8896 85.8406 48.8796 86.0994 48.6409C86.3781 48.3822 86.6867 48.1534 86.9555 47.8947C87.1744 47.6858 87.3536 47.7156 87.5328 47.9345C88.4087 48.999 88.4485 48.6807 87.4631 49.5761C86.7365 50.2427 86.7166 50.1034 87.3636 50.8695C87.3735 50.8794 87.3835 50.8993 87.3934 50.9093C88.1897 51.8345 88.1997 51.6355 87.2541 52.4812C86.9953 52.71 86.8062 52.71 86.5872 52.4414C86.3483 52.1429 86.0895 51.8644 85.8307 51.5858C85.771 51.4664 85.6814 51.3669 85.5022 51.357Z" fill="white"/>
<path d="M16.005 11.2624C16.2937 11.1629 16.5126 10.954 16.7515 10.7848C17.0103 10.5958 17.1994 10.6257 17.3786 10.8843C17.5976 11.1927 17.8365 11.5012 18.0555 11.8096C18.4238 12.3269 18.5034 12.317 18.7821 11.73C19.3096 10.6257 19.8471 9.52131 20.3747 8.40702C20.4344 8.28763 20.4941 8.16824 20.5539 8.04885C20.6733 7.80013 20.8127 7.76033 20.9918 7.99911C21.2506 8.34732 21.4995 8.69554 21.7483 9.04375C21.9374 9.31238 21.7881 9.55116 21.6786 9.78993C21.1013 10.9838 20.524 12.1777 19.9566 13.3716C19.877 13.5308 19.7078 13.6999 19.8471 13.869C19.9765 14.0282 20.1856 13.9387 20.3647 13.9188C21.7384 13.7894 23.102 13.6701 24.4757 13.5208C24.8539 13.481 25.1027 13.5905 25.3018 13.9188C25.5108 14.257 25.7696 14.5655 25.9986 14.8938C26.2673 15.2917 26.2176 15.3912 25.7398 15.441C24.3662 15.5703 23.0025 15.6997 21.6289 15.8389C21.0914 15.8887 21.0615 15.9583 21.3701 16.3861C21.6388 16.7642 21.9076 17.1423 22.1863 17.5104C22.3953 17.789 22.4053 18.0078 22.0867 18.2068C21.7981 18.3958 21.5194 18.6048 21.2407 18.8237C20.9719 19.0326 20.7828 18.9729 20.5837 18.6943C19.011 16.4956 17.4284 14.3068 15.8258 12.128C15.5272 11.72 15.7362 11.5111 16.005 11.2624C16.005 11.2723 16.005 11.2624 16.005 11.2624Z" fill="white"/>
<path d="M11.1475 15.6698C11.1774 15.6399 11.2072 15.6001 11.2471 15.5703C11.2769 15.5404 11.3068 15.5006 11.3466 15.4708C11.9438 14.9534 12.551 14.456 13.3374 14.2172C13.5165 14.1675 13.6957 14.0879 13.8549 14.2271C14.6114 14.9335 15.4774 15.5205 16.1145 16.3562V16.3662C14.8901 15.8289 13.7255 16.0578 12.8994 16.9731C12.1329 17.8188 12.0035 19.0425 12.5709 20.0175C13.2677 21.2313 14.711 21.7188 15.9651 21.1716C17.1895 20.6343 17.8166 19.2415 17.4284 17.9381C17.3786 17.769 17.3089 17.5999 17.2392 17.3909C17.4383 17.3511 17.5279 17.5004 17.6274 17.58C18.1649 18.0476 18.6825 18.5351 19.23 18.9927C19.5684 19.2813 19.6281 19.5797 19.4888 19.9976C18.374 23.5394 14.283 24.6338 11.5556 22.1068C11.476 22.0272 11.3765 21.9576 11.2869 21.8879C10.8489 21.281 10.4508 20.6542 10.2815 19.918C9.95307 18.5251 10.1621 17.2318 10.9584 16.0379C11.0082 15.9284 11.0778 15.7891 11.1475 15.6698Z" fill="white"/>
<path d="M63.0564 80.1693C62.937 80.2489 62.8076 80.3186 62.6881 80.3982C62.2701 80.627 61.852 80.8558 61.4439 81.0946C61.1951 81.2339 61.0358 81.204 60.8666 80.9653C60.1002 79.9206 60.1101 79.8908 61.2249 79.2242C61.4041 79.1147 61.5833 78.9954 61.7624 78.876C62.7976 78.2989 63.8229 77.702 64.8083 77.0453C65.1666 76.8961 65.5051 76.6971 65.8037 76.4484C66.7393 76.0007 66.7294 76.0106 67.2967 76.9459C67.5356 77.3339 67.4461 77.5328 67.0877 77.7318C66.59 78.0005 66.1222 78.3089 65.6345 78.5874C65.2861 78.7864 65.2363 78.9854 65.4553 79.3436C66.5204 81.0747 67.5555 82.8257 68.6007 84.5768C68.9889 85.2234 68.9889 85.2433 68.312 85.6314C67.9537 85.8303 67.6551 86.1487 67.2072 86.1686C66.9484 85.6513 66.6597 85.1538 66.3113 84.6862C66.172 84.3479 65.9729 84.0395 65.7539 83.751C65.5847 83.4028 65.3956 83.0645 65.1567 82.7561C64.6689 81.9303 64.1912 81.0946 63.7034 80.2688C63.5044 79.9505 63.3053 79.9306 63.0564 80.1693Z" fill="white"/>
<path d="M50.2559 11.2524C50.2061 11.2027 50.1564 11.1629 50.1165 11.1132C49.7682 10.6356 49.38 10.3869 48.7429 10.6456C48.4045 10.7848 47.9665 10.7251 47.7177 10.3471C47.4788 9.99886 47.5584 9.61085 47.7276 9.25269C47.8869 8.91442 48.1158 8.63585 48.3945 8.39707C48.7728 8.06875 48.7529 7.72053 48.4841 7.34247C48.3846 7.20318 48.285 7.07385 48.1955 6.93456C47.8073 6.29782 47.7177 5.67103 48.2253 5.05419C48.7628 4.77562 49.1908 4.39756 49.4297 3.81056C49.5492 3.51209 49.6686 3.24347 49.6388 2.91515C49.6188 2.65647 49.6188 2.38785 49.7383 2.13912C49.9473 1.70137 50.3256 1.51233 50.7536 1.73121C51.0821 1.8904 51.3309 1.8506 51.6395 1.71132C52.5154 1.33325 53.4311 1.23376 54.3568 1.49244C54.7152 1.59193 55.0636 1.71132 55.0636 2.18887C55.0636 2.31821 55.1631 2.38785 55.2726 2.44754C55.7106 2.67637 56.1684 2.8853 56.5865 3.13403C56.8453 3.29321 57.0046 3.25342 57.1539 3.00469C57.2932 2.76591 57.4823 2.53709 57.7909 2.71617C58.1094 2.9052 57.9999 3.20367 57.8805 3.46235C57.8208 3.60163 57.7411 3.73097 57.6515 3.84041C57.4226 4.11898 57.4425 4.38761 57.5421 4.71592C58.0099 6.23813 58.2289 7.78023 57.8208 9.36212C57.7013 9.81978 57.4823 10.2177 57.2932 10.6456C56.9846 10.9639 56.686 11.3121 56.2182 11.4116C55.7504 11.5012 55.3323 11.3619 54.964 11.0833C54.7749 10.944 54.5957 10.8246 54.3369 10.9639C53.023 11.6902 51.6594 11.72 50.2559 11.2524ZM57.1339 7.84987C56.7159 8.63585 56.2481 9.37207 55.6309 9.98891C55.5413 10.0785 55.4319 10.1879 55.5015 10.3371C55.5712 10.4864 55.7205 10.5361 55.8698 10.556C56.1286 10.5859 56.3078 10.4565 56.4571 10.2575C57.0145 9.55116 57.1638 8.72539 57.1339 7.84987ZM56.5964 5.67103C56.5765 5.63124 56.6661 5.4621 56.5268 5.39246C56.3775 5.31287 56.2978 5.482 56.2082 5.56159C55.7305 5.9894 55.2527 6.41721 54.765 6.84502C54.6555 6.94451 54.4962 7.044 54.6057 7.21313C54.7052 7.38227 54.8645 7.30267 55.0038 7.24298C55.4518 7.03405 55.8897 6.79527 56.2779 6.48685C56.5069 6.29782 56.6462 6.06899 56.5964 5.67103ZM52.7344 10.6654C52.7443 10.6157 52.7543 10.5759 52.7742 10.5262C52.2466 10.2476 51.729 9.92922 51.1816 9.70039C50.9029 9.581 50.6441 9.79988 50.4749 10.0287C50.3654 10.1779 50.4948 10.3272 50.6242 10.3968C51.301 10.7251 52.0177 10.755 52.7344 10.6654ZM53.6103 3.92C54.0085 3.9598 54.4564 3.9399 54.8048 3.58173C54.8744 3.51209 54.9939 3.48224 54.9839 3.36286C54.964 3.22357 54.8346 3.20367 54.7251 3.18377C54.1379 3.04449 53.6203 3.25342 53.1027 3.48224C52.9534 3.54194 52.7244 3.59168 52.7543 3.78072C52.7841 3.99959 53.023 3.9001 53.1723 3.92C53.2918 3.9399 53.4311 3.92 53.6103 3.92ZM54.9143 4.85521C54.6057 4.84526 53.889 5.34271 53.8193 5.61134C53.7696 5.81032 53.8592 5.9695 53.9985 6.09884C54.1578 6.22818 54.2772 6.10879 54.3867 6.01925C54.6256 5.82027 54.8744 5.62129 55.1034 5.40241C55.2228 5.29297 55.4319 5.20343 55.3721 5.02434C55.3025 4.79552 55.0636 4.90496 54.9143 4.85521ZM53.68 9.61085C53.5108 9.34223 53.3316 9.02386 53.0131 8.86467C52.7344 8.72539 52.4258 8.82488 52.1471 8.92437C51.9679 8.99401 52.0575 9.15319 52.177 9.23279C52.5652 9.49146 52.9932 9.67054 53.4411 9.79988C53.5705 9.84963 53.68 9.81978 53.68 9.61085ZM51.8186 4.88506C51.6693 4.9746 51.2214 4.75572 51.2911 5.18353C51.3409 5.47205 51.4304 5.9496 51.8385 5.9496C52.1073 5.9496 52.4756 5.73073 52.4656 5.36261C52.4557 5.04424 52.2566 4.80547 51.8186 4.88506ZM53.6203 2.27841C53.0529 2.20877 52.6348 2.25851 52.2168 2.3779C52.0476 2.42765 51.739 2.4177 51.8186 2.69627C51.9082 2.99474 52.167 3.00469 52.4258 2.87535C52.7941 2.69627 53.1624 2.51719 53.6203 2.27841ZM51.3608 8.0787C51.5598 8.019 51.8883 8.14834 51.8983 7.81007C51.9082 7.58125 51.6892 7.35242 51.4404 7.37232C51.1517 7.40216 50.7635 7.56135 50.7436 7.82997C50.7337 8.12844 51.1318 7.99911 51.3608 8.0787ZM50.883 6.43711C50.8531 6.26797 50.7735 6.12869 50.664 5.99935C50.5943 5.90981 50.4848 5.87996 50.4052 5.9695C50.1862 6.23813 50.0369 6.54655 49.9871 6.89476C49.9772 6.97436 50.027 7.01415 50.0966 7.03405C50.2858 7.0838 50.883 6.61619 50.883 6.43711ZM56.1087 7.67079C55.7703 7.82997 55.5015 7.95931 55.2427 8.08865C55.0735 8.16824 55.0536 8.31748 55.1233 8.46671C55.193 8.61595 55.1731 8.83483 55.3522 8.87462C55.5314 8.91442 55.5911 8.73534 55.6707 8.61595C55.84 8.34732 56.0589 8.10855 56.1087 7.67079ZM52.3362 6.80522C52.4159 7.0042 52.5353 7.21313 52.7344 7.21313C52.9932 7.22308 53.2122 7.044 53.2619 6.78532C53.3017 6.59629 53.1823 6.33762 52.9534 6.35752C52.7045 6.37741 52.4955 6.5565 52.3362 6.80522ZM49.1112 9.49146C49.1013 9.36212 49.0813 9.22284 48.942 9.22284C48.6931 9.21289 48.6135 9.42182 48.5538 9.6009C48.514 9.72029 48.6135 9.78993 48.7131 9.77998C48.8922 9.76009 49.0614 9.70039 49.1112 9.49146ZM51.2811 3.55189C51.2712 3.3927 51.2015 3.27331 51.0522 3.27331C50.8432 3.27331 50.7337 3.4325 50.6839 3.61158C50.654 3.74092 50.6839 3.91005 50.8531 3.9001C51.0721 3.9001 51.1915 3.73097 51.2811 3.55189Z" fill="white"/>
</svg>
