<svg width="108" height="110" fill="none" xmlns="http://www.w3.org/2000/svg"><g clip-path="url(#prefix__clip0)" fill="#fff"><path d="M71.4 62.4c-4.1 0-7.8-1.7-10.2-4.6-4.8-5.9-3.3-15.1 3.4-20.6 3.1-2.5 6.9-3.9 10.7-3.9 4.1 0 7.8 1.7 10.2 4.6 2.3 2.9 3.3 6.6 2.6 10.5-.7 3.9-2.8 7.5-6 10.1-3.2 2.5-6.9 3.9-10.7 3.9zM75.2 35c-3.4 0-6.8 1.3-9.6 3.6-6 4.9-7.4 13-3.2 18.2 2.1 2.6 5.3 4 8.9 4 3.4 0 6.8-1.3 9.6-3.6 2.9-2.4 4.8-5.6 5.4-9.1.6-3.4-.2-6.6-2.2-9.1-2.1-2.6-5.2-4-8.9-4z"/><path d="M34.2 67.5c-5 0-8.4-1.5-9.9-4.2-1.9-3.3-.7-8 3.3-13.2 3.8-5 9.8-9.9 16.9-13.9 8.4-4.7 17-7.4 23.7-7.4 4.9 0 8.4 1.5 9.9 4.2 1.9 3.3.7 8-3.3 13.2-3.8 5-9.8 9.9-16.9 13.9-8.4 4.7-17 7.4-23.7 7.4zm33.9-37c-6.4 0-14.8 2.6-22.9 7.2-6.9 3.9-12.7 8.7-16.4 13.5-3.5 4.5-4.6 8.7-3.1 11.3 1.2 2.2 4.2 3.4 8.4 3.4 6.4 0 14.8-2.6 22.9-7.2 6.9-3.9 12.7-8.7 16.4-13.5 3.5-4.5 4.6-8.7 3.1-11.3-1.1-2.2-4.1-3.4-8.4-3.4z"/><path d="M75.5 80.2c-3.5 0-7.7-2.4-12.1-6.9-4.3-4.4-8.5-10.5-11.8-17.3-3.8-7.8-6.2-15.7-6.6-22.3-.5-6.9 1.1-11.6 4.6-13.3.9-.4 1.8-.6 2.9-.6 3.5 0 7.7 2.4 12.1 6.9 4.3 4.4 8.5 10.5 11.8 17.3 3.8 7.8 6.2 15.7 6.6 22.3.5 6.9-1.1 11.6-4.6 13.3-.8.3-1.8.6-2.9.6zm-23-58.8c-.8 0-1.5.2-2.1.5-2.7 1.3-4 5.6-3.6 11.6.5 6.4 2.7 14.1 6.5 21.7 3.2 6.6 7.3 12.6 11.5 16.9 4 4.1 7.9 6.4 10.9 6.4.8 0 1.5-.2 2.1-.5 2.7-1.3 4-5.6 3.6-11.6-.5-6.4-2.7-14.1-6.5-21.7C71.6 38 67.5 32 63.3 27.8c-4-4.1-7.9-6.4-10.8-6.4zM39 78.1c-2.8 0-5.7-.6-8.5-1.7-4.2-1.7-7.7-4.4-9.9-7.7-2.2-3.4-2.8-6.9-1.6-10 1.6-4.1 6.2-6.6 12-6.6 2.8 0 5.7.6 8.5 1.7 4.2 1.7 7.7 4.4 9.9 7.7 2.2 3.4 2.8 6.9 1.6 10-1.6 4.1-6.2 6.6-12 6.6zm-7.9-24.2c-5.1 0-9.1 2.1-10.4 5.5-1 2.5-.5 5.5 1.4 8.4 2 3 5.2 5.5 9.1 7 2.6 1 5.3 1.6 7.8 1.6 5.1 0 9.1-2.1 10.4-5.5 1-2.5.5-5.5-1.4-8.4-2-3-5.2-5.5-9.1-7-2.6-1.1-5.3-1.6-7.8-1.6zM56.8 88.4c-2.8 0-5.4-.2-7.4-.7-1-.2-1.8-.5-2.4-.8-.8-.4-1.3-1-1.3-1.6 0-1.6 2.7-2.2 3.7-2.4 2-.4 4.6-.7 7.4-.7 2.8 0 5.4.2 7.4.7 1 .2 1.8.5 2.4.8.8.4 1.3 1 1.3 1.6 0 1.6-2.7 2.2-3.7 2.4-2 .5-4.6.7-7.4.7zm-9.2-3.1c.8.5 3.9 1.4 9.2 1.4 5.3 0 8.4-.9 9.2-1.4-.8-.5-3.9-1.4-9.2-1.4-5.3 0-8.4.8-9.2 1.4zM2.4 44.2l1.7.4.6-2.6c.3-1 .8-1.8 1.5-2.3.7-.5 1.5-.6 2.4-.4 1 .2 1.7.7 2 1.5.4.8.4 1.7.2 2.9l-1.1 4.5L0 45.9l1.8-7.5 1.9.5-1.3 5.3zm4.1-1.5L5.9 45l2.4.6.6-2.4c.2-1-.1-1.6-.9-1.8-.8-.1-1.3.3-1.5 1.3zM11.9 39.3l-7-8.4.9-1.9 10.9.8-1 2-2.4-.2-1.9 3.8 1.6 1.8-1.1 2.1zM10 33.8l1.2-2.4-3.5-.3 2.3 2.7zM20.7 25.5c-1 1.1-2.1 1.7-3.5 1.8-1.4.1-2.6-.3-3.7-1.3-1.1-.9-1.7-2.1-1.8-3.5-.1-1.4.3-2.7 1.3-3.8.6-.7 1.1-1.1 1.7-1.4.6-.3 1.3-.4 2-.5l.3 2c-.6.1-1.1.2-1.4.4-.4.2-.7.5-1.1.9-.5.6-.8 1.4-.7 2.2.1.8.5 1.5 1.2 2.1.7.6 1.4.8 2.2.8.8 0 1.5-.3 2-1 .3-.4.6-.8.7-1.2.1-.4.2-.9.1-1.5l2-.1c.1.8 0 1.5-.2 2.2-.1.5-.5 1.2-1.1 1.9zM24.7 21l-5.9-8.1 1.8-1.3 2.6 3.5.7-5.9L26 7.7l-.8 5.8 6.8 2.2-2.1 1.6-5-1.6-.2 1.7 1.8 2.5-1.8 1.1zM33.5 15l-3.9-9.2 6.9-2.9.8 1.8-4.9 2.1.8 1.9 4.3-1.8.8 1.8-4.3 1.8.8 1.9 5-2.1.8 1.8-7.1 2.9zM44.9 11.1l-1.5-7.8-3 .6-.4-2L48.1.4l.4 2-3 .6 1.5 7.8-2.1.3zM54.4 2.1l-.1 1.7 2.7.1c1.1 0 2 .3 2.6.9.6.6.9 1.3.8 2.3 0 1-.4 1.8-1.1 2.3-.7.5-1.6.8-2.8.7l-4.6-.1.3-10 7.7.3-.1 2-5.4-.2zm2.3 3.6l-2.4-.1-.1 2.5 2.4.1c1 0 1.5-.4 1.6-1.2 0-.9-.5-1.3-1.5-1.3zM70.9 11.7c-1.3.7-2.6.8-4.1.4-1.5-.4-2.5-1.3-3.2-2.5-.7-1.2-.8-2.6-.4-3.9.4-1.4 1.2-2.4 2.5-3.1 1.3-.7 2.6-.8 4.1-.4 1.5.4 2.5 1.3 3.2 2.5.7 1.2.8 2.6.4 3.9-.4 1.4-1.2 2.4-2.5 3.1zm-5.3-3.1c.4.7 1 1.2 1.8 1.5.8.2 1.6.2 2.3-.3.7-.4 1.2-1.1 1.4-1.9.2-.8.2-1.6-.2-2.4-.4-.7-1-1.2-1.8-1.5-.8-.2-1.6-.2-2.3.3-.7.4-1.2 1.1-1.4 1.9-.2.9-.2 1.7.2 2.4zM79.7 6.3l6.1 3.6-5.1 8.6-1.9-1.1 4.1-6.9L80.5 9l-.4.7c-1 1.7-1.9 2.9-2.6 3.7-.7.8-1.4 1.3-2 1.4-.6.1-1.2 0-1.9-.4-.4-.2-.7-.5-.9-.7l1-1.5c.1.1.2.2.3.2.3.2.5.2.8.2.2 0 .6-.2.9-.4.4-.3.8-.7 1.3-1.4s1.1-1.6 1.7-2.7l1-1.8zM85.8 22.7l6.1-.6 1.7-5.7 1.6 2-1.2 3.7 3.8-.4 1.6 1.9-5.9.5-1.7 5.9-1.6-2 1.2-3.9-4.1.4-1.5-1.8zM92.5 31l6.1.9 2.9-5.2 1.1 2.3-2 3.3 3.8.5 1.1 2.2-5.9-.9-3.1 5.4-1.1-2.3 2.1-3.5-4.1-.5-.9-2.2zM97.2 41.4l9.7-2.3.5 2.1-7.8 1.9 1.2 4.8-1.9.5-1.7-7zM2.4 73.6l9.1-4.1 3.4 7.6-9.1 4.1-.9-2 7.3-3.3-1.6-3.6-7.3 3.3-.9-2zM15.6 92.2c-1.4-.1-2.6-.8-3.6-2s-1.4-2.5-1.3-3.9c.1-1.4.7-2.6 1.8-3.5 1.1-.9 2.4-1.3 3.8-1.2 1.4.1 2.6.8 3.6 2s1.4 2.5 1.3 3.9c-.1 1.4-.7 2.6-1.8 3.5-1.1 1-2.4 1.4-3.8 1.2zm-2.7-5.4c-.1.8.1 1.6.7 2.3.6.7 1.3 1 2.1 1.1.8 0 1.6-.2 2.3-.8.7-.6 1.1-1.3 1.2-2.1.1-.8-.1-1.6-.7-2.3-.6-.7-1.3-1-2.1-1.1-.8 0-1.6.2-2.3.8-.7.5-1.1 1.2-1.2 2.1zM17.7 99l2.3-3.4.8.5c.8-.5 1.6-1.2 2.3-1.9.7-.7 1.5-1.8 2.5-3.1l.7-1 6 4.1-4.5 6.6 1 .7-2.5 3.2-1.5-1L26 102l-5.2-3.5-1.3 1.6-1.8-1.1zm11.6-4.3L26.8 93l-.6.8c-1.1 1.6-2.3 2.8-3.6 3.6l3.2 2.2 3.5-4.9zM37.2 107.4l2.2-9.7 2.3.5 1.6 4.7 3.5-3.5 2.3.5-2.2 9.7-2.1-.5 1.4-6.4-3.7 3.5h-.1l-1.8-4.7-1.4 6.3-2-.4zM62 108.2c-.9 1.1-2.2 1.7-3.7 1.8-1.5.1-2.8-.3-3.9-1.2-1.1-.9-1.7-2.1-1.8-3.6-.1-1.4.3-2.7 1.3-3.8.9-1.1 2.2-1.7 3.7-1.8 1.5-.1 2.8.3 3.9 1.2 1.1.9 1.7 2.1 1.8 3.6 0 1.4-.4 2.7-1.3 3.8zm-6.1-1.1c.6.6 1.4.8 2.2.8.9-.1 1.6-.4 2.1-1.1.5-.6.7-1.4.7-2.3-.1-.9-.4-1.6-1-2.2-.6-.6-1.4-.8-2.2-.8-.9.1-1.6.4-2.1 1.1-.5.6-.7 1.4-.7 2.3.1 1 .4 1.7 1 2.2zM73.6 106.6c-1.4.5-2.7.4-4-.2-1.3-.6-2.1-1.6-2.6-3s-.4-2.7.1-4c.6-1.3 1.6-2.2 3-2.7.8-.3 1.5-.4 2.2-.3.7.1 1.3.3 2 .6l-.7 1.9c-.5-.2-1-.4-1.4-.4-.4 0-.9 0-1.4.2-.8.3-1.3.8-1.6 1.6-.3.8-.3 1.5 0 2.4.3.8.8 1.4 1.5 1.8.7.4 1.5.4 2.3.2.5-.2.9-.4 1.2-.7.3-.3.6-.7.9-1.3l1.8.9c-.3.7-.7 1.3-1.2 1.8-.6.5-1.3.9-2.1 1.2zM83.6 101.4l-4.4-6.6-2.5 1.7-1.1-1.7 6.9-4.6 1.1 1.7-2.5 1.7 4.4 6.6-1.9 1.2zM96.3 88.4c.1 1.4-.4 2.7-1.5 3.8-1 1.1-2.3 1.7-3.7 1.8-1.4.1-2.7-.4-3.7-1.4-1.1-1-1.6-2.2-1.7-3.6-.1-1.4.4-2.7 1.5-3.8 1-1.1 2.3-1.7 3.7-1.8 1.4-.1 2.7.4 3.7 1.4 1.1 1 1.7 2.2 1.7 3.6zm-5 3.4c.8 0 1.5-.3 2.1-1 .6-.6.9-1.4.8-2.2-.1-.8-.4-1.5-1.1-2.1-.6-.6-1.4-.9-2.2-.9-.8 0-1.5.3-2.1 1-.6.6-.9 1.4-.8 2.2.1.8.4 1.5 1.1 2.1.6.6 1.3.9 2.2.9zM101.7 83.1l-9-4.3 1-2.1 4.9-.6-2.6-4.2 1-2.1 9 4.3-.9 2-5.9-2.8 2.6 4.4v.1l-5 .7 5.9 2.8-1 1.8zM3.6 58.7l-1.7-1.8 1.4-1.3L5 57.4l1.8-1.7L8 57.2l-1.8 1.7 1.7 1.8L6.5 62l-1.7-1.8L3 61.8l-1.3-1.4 1.9-1.7zM102.2 58.7l-1.7-1.8 1.4-1.3 1.7 1.8 1.8-1.7 1.3 1.4-1.8 1.7 1.7 1.8-1.4 1.3-1.7-1.8-1.8 1.7-1.3-1.4 1.8-1.7z"/></g><defs><clipPath id="prefix__clip0"><path fill="#fff" d="M0 0h107.4v109.9H0z"/></clipPath></defs></svg>
