<svg width="677" height="253" viewBox="0 0 677 253" fill="none" xmlns="http://www.w3.org/2000/svg">
<g clip-path="url(#clip0)">
<path d="M24.4 179.1H37.3V150.6L61.6 116.1H46.7L31 138.5L15.3 116.1H0L24.4 150.8V179.1Z" fill="white"/>
<path d="M79.9 179.1H127.2V167.5H92.8V151.3H119.7V139.9H92.8V127.7H126.2V116.1H79.9V179.1Z" fill="white"/>
<path d="M158.4 180.4C172.4 180.4 183.4 173.1 183.4 160.9C183.4 148.9 173.6 144.5 163.4 141.2C154.8 138.5 148.1 137.7 148.1 133C148.1 129.5 151.1 126.8 158.8 126.8C166.3 126.8 174.1 129.6 179.2 132.7V120C174.1 117.2 167 114.8 158.6 114.8C144 114.8 134.8 121.6 134.8 132.8C134.8 145.7 145 148.6 155.9 152.1C164 154.6 169.9 155.7 169.9 161.2C169.9 166.2 164 168.5 157.7 168.5C149 168.5 139.2 164.5 134.3 160.1V173.6C140.7 178 149.2 180.4 158.4 180.4Z" fill="white"/>
<path d="M215.7 179.1H228.4V138.6L260.4 179.1H271.1V116.1H258.5V156.4L226.7 116.1H215.7V179.1Z" fill="white"/>
<path d="M348.3 147.6C348.3 129.4 334.5 114.8 315.6 114.8C296.7 114.8 282.9 129.4 282.9 147.6C282.9 165.7 296.7 180.4 315.6 180.4C334.5 180.4 348.3 165.7 348.3 147.6ZM335.1 147.6C335.1 159.5 326.7 168.2 315.6 168.2C304.5 168.2 296.1 159.5 296.1 147.6C296.1 135.7 304.5 127 315.6 127C326.7 127 335.1 135.7 335.1 147.6Z" fill="white"/>
<path d="M465.1 179.1H478.1V136L492.9 156.2H500.1L514.6 136V179.1H527.4V116.1H514.6L496.3 142.2L478 116.1H465.1V179.1Z" fill="white"/>
<path d="M541.8 179.1H554.7V116.1H541.8V179.1Z" fill="white"/>
<path d="M569 179.1H613.9V167.5H581.9V116.1H569V179.1Z" fill="white"/>
<path d="M620.2 179.1H633.2V150L660.3 179.1H676.8L645.5 145L672.2 116.1H656.4L633.2 140.9V116.1H620.2V179.1Z" fill="white"/>
<path d="M67.4 97.6V179.1H96.7V97.6H67.4Z" fill="white"/>
<path d="M199.7 38.3V179.1H229V38.3H199.7Z" fill="white"/>
<path d="M360.8 64.2V179.1H390.1V64.2H360.8Z" fill="white"/>
<path d="M405.1 117.4V179.1H434.4V117.4H405.1Z" fill="white"/>
<path d="M449.4 0V179.1H478.8V0H449.4Z" fill="white"/>
<path d="M84.9 243.4C88.8 243.4 92.4 242.4 95.2 240.6V235C92.3 237.3 88.9 238.2 85.2 238.2C77.8 238.2 72.1 232.8 72.1 225.2C72.1 217.6 77.7 212.2 85 212.2C88.9 212.2 91.8 213.2 94.5 215V209.4C91.7 207.8 88.5 207 85 207C74.4 207 66.5 214.6 66.5 225.2C66.4 235.9 74.4 243.4 84.9 243.4ZM128.3 238.6C123.6 238.6 120.2 235 120.2 230.4C120.2 225.8 123.7 222.2 128.3 222.2C132.9 222.2 136.4 225.8 136.4 230.4C136.3 235.1 132.9 238.6 128.3 238.6ZM128.3 243.4C136.3 243.4 141.8 237.5 141.8 230.4C141.8 223.3 136.3 217.5 128.3 217.5C120.3 217.5 114.8 223.4 114.8 230.4C114.7 237.5 120.2 243.4 128.3 243.4ZM170.1 242.7V222.9H178.2V218.1H170.1V215.8C170.1 213.2 171.5 211.8 173.9 211.8C175.7 211.8 176.9 212.2 178.2 212.7V208.1C176.5 207.4 174.7 207 172.4 207C167.2 207 164.7 210.3 164.7 214.8V218H160V222.8H164.6V242.6H170.1V242.7ZM205.6 242.7V222.9H213.7V218.1H205.6V215.8C205.6 213.2 207 211.8 209.4 211.8C211.2 211.8 212.4 212.2 213.7 212.7V208.1C212 207.4 210.2 207 207.9 207C202.7 207 200.2 210.3 200.2 214.8V218H195.6V222.8H200.2V242.6H205.6V242.7ZM244.9 243.4C248.7 243.4 252 242.4 254 241V236.4C251.8 237.7 249.1 238.6 246.1 238.6C241.2 238.6 237.5 236.2 236.8 232H255.6V230.6C255.6 224.1 251.8 217.5 243.9 217.5C236.3 217.5 231.3 223.2 231.3 230.4C231.3 238.3 237.5 243.4 244.9 243.4ZM236.9 227.9C237.2 224.9 239.6 222 243.8 222C248.2 222 250.2 225.2 250.3 227.9H236.9ZM288.6 243.4C292.4 243.4 295.7 242.4 297.7 241V236.4C295.5 237.7 292.8 238.6 289.8 238.6C284.9 238.6 281.2 236.2 280.5 232H299.3V230.6C299.3 224.1 295.5 217.5 287.6 217.5C280 217.5 275 223.2 275 230.4C275.1 238.3 281.2 243.4 288.6 243.4ZM280.6 227.9C280.9 224.9 283.3 222 287.5 222C291.9 222 293.9 225.2 294 227.9H280.6ZM342 209.6C339.7 208.1 336.7 207 333 207C327.2 207 323 210.7 323 215.8C323 218.5 323.9 220.4 325 222.1C322.4 223.3 318.7 226.7 318.7 232C318.7 239.5 325 243.4 331.8 243.4C336.3 243.4 339.7 242 342.5 239.7L345.7 242.8H352.7L345.9 236.2C348.4 232.8 349.7 228.5 349.7 223.9H344.5C344.4 227.2 343.7 230.1 342.1 232.5L333 223.6C331 221.6 328.4 219.1 328.4 216.4C328.4 213.5 330.6 211.9 333.9 211.9C337.1 211.9 339.9 213.4 341.9 215.2V209.6H342ZM332 238.6C327.9 238.6 324.1 236.3 324.1 231.8C324.1 228.6 326.4 226.4 328.3 225.7L339 236.1C337.1 237.7 334.9 238.6 332 238.6ZM373 242.7H390.2C397.6 242.7 402 238.7 402 232.8C402 227.4 398.6 224.2 394.5 223.4C397 222.4 399.2 220 399.2 216.2C399.2 210.7 395 207.6 388.9 207.6H373V242.7ZM378.5 237.7V226.7H389.2C393.5 226.7 396.1 228.6 396.1 232.1C396.1 235.6 393.5 237.7 389.2 237.7H378.5ZM378.5 221.8V212.7H388C391.7 212.7 393.8 214.3 393.8 217.2C393.8 220.1 391.6 221.8 388 221.8H378.5ZM446.7 238.5C445.5 238.5 444.6 237.6 444.6 236V226.8C444.6 220.6 439.8 217.4 433.2 217.4C428.9 217.4 426 218.5 424.2 219.5V224.3C426.1 223.1 429.1 222.1 432 222.1C435.8 222.1 439.2 223.2 439.2 227.5V228.9C437.5 227.9 435 227 431.3 227C426.1 227 421.4 229.7 421.4 235.2C421.4 240.5 425.5 243.5 430.6 243.5C434.9 243.5 437.9 241.7 439.7 239.7C440.4 242.2 442.5 243.2 444.9 243.2C446 243.2 447.3 242.9 448.1 242.4V238.3C447.8 238.4 447.2 238.5 446.7 238.5ZM439.3 235.8C437.9 237.4 435.2 238.8 432.3 238.8C429.4 238.8 427 237.6 427 234.9C427 232.5 429.2 231.1 432.8 231.1C435.5 231.1 437.8 232 439.4 232.9V235.8H439.3ZM468.6 242.7H474V231.6L485 242.7H492.4L479 229.1L490.7 218.1H483.8L474.1 227.4V207.6H468.7V242.7H468.6ZM522.5 243.4C526.3 243.4 529.6 242.4 531.6 241V236.4C529.4 237.7 526.7 238.6 523.7 238.6C518.8 238.6 515.1 236.2 514.4 232H533.2V230.6C533.2 224.1 529.4 217.5 521.5 217.5C513.9 217.5 508.9 223.2 508.9 230.4C508.9 238.3 515.1 243.4 522.5 243.4ZM514.5 227.9C514.8 224.9 517.2 222 521.4 222C525.8 222 527.8 225.2 527.9 227.9H514.5ZM554.4 242.7H559.8V227.6C560.8 225.4 563.7 222.8 567.9 222.8C568.6 222.8 569.1 222.8 569.4 222.9V217.5C569.2 217.5 569.1 217.5 568.9 217.5C565 217.5 561.5 219.6 559.8 222.4V218.1H554.4V242.7ZM593.5 253C597.8 253 600.8 250.2 602.9 245.4L614.7 218.1H608.8L601.6 235.4L594.2 218.1H588.2L599 241.8C597.2 246 595.5 248.2 592.6 248.2C591.2 248.2 590.2 247.9 589 247.4V252.2C590 252.7 591.7 253 593.5 253Z" fill="white"/>
</g>
<defs>
<clipPath id="clip0">
<rect width="676.8" height="253" fill="white"/>
</clipPath>
</defs>
</svg>
