<svg width="32" height="32" fill="none" xmlns="http://www.w3.org/2000/svg"><path d="M27.093 11.042c1.673 1.66 2.622 3.813 2.622 6.1 0 1.452-.381 2.853-1.098 4.114.116.69.449 1.736 1.001 3.104l.296.713.065.192.028.112a1.6 1.6 0 01-1.652 1.914c-2.18-.115-3.92-.646-5.189-1.627-1.18.409-2.442.622-3.737.622-1.32 0-2.607-.221-3.808-.647a1.143 1.143 0 11.762-2.154A9.121 9.121 0 0019.43 24c1.241 0 2.44-.243 3.527-.702.43-.182.929-.084 1.257.248.629.634 1.568 1.076 2.837 1.304l.324.052c-.656-1.663-1.016-2.919-1.078-3.82a1.143 1.143 0 01.175-.69c.627-.99.958-2.099.958-3.25 0-1.66-.694-3.235-1.946-4.477a1.143 1.143 0 111.61-1.623zM12.571 3.43c5.65 0 10.286 4.056 10.286 9.142 0 5.086-4.636 9.143-10.286 9.143-1.294 0-2.557-.213-3.737-.621-1.268.98-3.008 1.512-5.188 1.627a1.6 1.6 0 01-1.653-1.914l.029-.113.065-.192.152-.364c.59-1.421.959-2.524 1.11-3.273l.034-.18-.172-.318a8.262 8.262 0 01-.925-3.795c0-5.086 4.636-9.142 10.285-9.142zm0 2.285c-4.45 0-8 3.107-8 6.857 0 1.15.331 2.259.959 3.25.13.205.191.446.174.69-.058.836-.372 1.98-.941 3.47l-.136.35.324-.052c1.268-.229 2.208-.67 2.836-1.304.329-.332.826-.43 1.257-.249a9.056 9.056 0 003.527.703c4.45 0 8-3.107 8-6.858 0-3.75-3.55-6.857-8-6.857z" fill="#fff"/></svg>
