<svg xmlns="http://www.w3.org/2000/svg" width="134" height="42" fill="none"><path fill-rule="evenodd" clip-rule="evenodd" d="M7.46 16.215V13.74h3.079v2.97c0 4.275-1.839 8.16-4.784 10.98A16.736 16.736 0 010 31.245V28.05a13.446 13.446 0 003.573-2.43c2.392-2.295 3.886-5.445 3.886-8.91v-.495zM0 33.405v3.075a21.68 21.68 0 009.223-5.175 20.503 20.503 0 004.53-6.36 25.692 25.692 0 002.78 5.55c1.121-1.5 2.003-3.465 2.81-5.535a20.456 20.456 0 004.515 6.36 21.37 21.37 0 009.224 5.175V33.42a18.403 18.403 0 01-7.041-4.185c-3.289-3.135-5.337-7.47-5.337-12.225V3.825H17.64v13.17c0 2.325-.39 5.025-1.092 7.125-.702-2.1-1.091-4.8-1.091-7.125V3.825h-3.08v13.17c0 4.755-2.033 9.09-5.321 12.225A18.384 18.384 0 010 33.405zm0 4.98V41.4a26.592 26.592 0 0013.035-6.78c.748-.72 1.45-1.47 2.108-2.28l-.105-.165-.03.045.03-.045a31.105 31.105 0 01-1.54-2.64 22.874 22.874 0 01-2.63 3A23.505 23.505 0 010 38.385zm22.528-22.17V13.74h3.08v2.97c0 3.465 1.48 6.615 3.886 8.91 1.046.99 2.257 1.83 3.602 2.445v3.195a16.475 16.475 0 01-5.77-3.57c-2.96-2.82-4.783-6.705-4.783-10.98v-.495h-.015zm-4.485 16.23l.18-.27.03.045-.03-.045a34.79 34.79 0 001.48-2.52 23.162 23.162 0 002.54 2.88 23.358 23.358 0 0010.854 5.835v3.015a26.593 26.593 0 01-13.036-6.78 22.975 22.975 0 01-2.018-2.16zM44.219 15.135c.658-3.57 1.54-7.56 1.928-11.175h3.424v16.71h-2.228v-6.615l.254-5.97c-.314 1.92-1.57 9-3.154 12.405v.015h-.478v-.015c-1.585-3.39-2.84-10.47-3.155-12.405l.27 5.97v6.615h-2.213V3.96h3.424c.403 3.6 1.27 7.59 1.928 11.175zm88.9 5.535V3.96h-2.84l-2.616 9.765V3.96h-2.272v16.71l2.302.03 3.124-11.655V20.67h2.302zM132.058 0h-5.606v1.965h5.606V0zM95.807 6.87v2.04c0 1.335-.553 2.31-1.42 2.925.942.75 1.42 1.905 1.42 3.33v5.475h-7.19V3.93h7.19v2.94zm-4.65 6.33v5.055h2.094V15c0-1.695-1.151-1.86-2.093-1.8zm0-6.885V10.8c.943.045 2.094 0 2.094-1.71V6.315h-2.093zM81.8 20.64h-2.541V3.93H86.808v16.71H81.8zm2.422-14.325h-2.377v11.94h2.377V6.315zM53.936 20.64h-2.542V3.93H58.943v16.71h-5.008zm2.421-14.325H53.98v11.94h2.377V6.315zm43.68 14.325h-2.54V3.93h7.563v6.705h-2.601v-4.32h-2.422v11.94h2.422v-4.32h2.601v6.705h-5.023zm-36.744 0h-2.54V3.93H68.3v6.705h-2.586v-4.32h-2.422v11.94h2.422v-4.32h2.586v6.705h-5.008zm46.102.03h-2.541V3.96h2.541v6.555h.419c1.375 0 1.824-1.5 1.824-2.625V3.96h2.541v3.825c0 1.755-.643 3.075-1.913 3.945 1.375.96 1.913 2.175 1.913 3.945v5.01h-2.541V15.57c0-1.08-.509-2.385-1.809-2.385h-.449v7.485h.015zm6.473 0V3.96h2.272v9.765l2.616-9.765h2.841v16.71h-2.287V9.045L118.17 20.7l-2.302-.03zm-43.217 0h-2.54V3.96h2.54v6.555h.419c1.375 0 1.824-1.5 1.824-2.625V3.96h2.541v3.825c0 1.755-.643 3.075-1.913 3.945 1.36.96 1.913 2.175 1.913 3.945v5.01h-2.541V15.57c0-1.08-.509-2.385-1.81-2.385h-.448v7.485h.015zM51.184 42h-2.541V25.29h7.564V42H53.62V27.675h-2.422V42h-.015zm-9.343 0H39.3V25.29H46.849v6.705h-2.586v-4.32H41.84v11.94h2.422v-4.32h2.586V42H41.84zm18.701 0h-2.541V25.29H65.564V42h-5.022zm2.407-14.325h-2.377v11.94h2.377v-11.94zm12.213-2.385h7.863v2.385h-2.661V42h-2.541V27.675h-2.661V25.29zm-.688 5.805v2.055c0 2.565-1.33 4.365-3.797 4.365h-.852V42h-2.541V25.29c2.392.015 4.798 0 7.19 0v5.805zm-4.649-3.42v7.44c.957.06 2.093-.105 2.093-1.815v-5.625h-2.093z" fill="#fff"/></svg>
