<svg xmlns="http://www.w3.org/2000/svg" width="1242.76" height="504.587" viewBox="0 0 932.07 378.44"><path fill="#fff" d="M563.3 129.535c-8.374 4.223-17.597 7.063-27.581 8.621.203 3.078.3 6.184.332 9.305h58.945c-3.344-10.777-7.933-21.004-13.71-30.441a77.416 77.416 0 01-17.985 12.515m81.066-7.894C616.414 50.44 547.152 0 466.031 0 384.914 0 315.652 50.441 287.7 121.64H0v25.82h309.984c.88-3.437 1.813-6.855 2.91-10.202v-.004a159.924 159.924 0 0111.04-25.84c.007-.023.02-.043.03-.062C346.79 68.824 388.153 37.77 437.247 28.91h-.004.012c2.285-.414 4.586-.781 6.906-1.094.168-.023.34-.043.508-.066 2.144-.285 4.297-.543 6.469-.742.73-.067 1.468-.11 2.203-.164 1.68-.133 3.355-.274 5.047-.356 2.535-.12 5.082-.191 7.644-.191h.016c2.457 0 4.898.066 7.32.183 2.371.11 4.727.282 7.067.489l.011.004C549.191 33.07 605.508 82.32 622.152 147.46h309.914v-25.82zm-298.539 4.261a134.63 134.63 0 00-8.8 21.559h172.929c-.027-2.734-.102-5.457-.289-8.149-18.82-1.035-39.777-5.738-62.793-14.199-52.047-19.129-79.047-13.785-92.52-5.922a38.497 38.497 0 00-8.527 6.711m163.207-66.476a160.135 160.135 0 0122.899 52.886c7-1.093 13.375-3.011 19.039-5.785 6.222-3.047 10.937-6.777 14.507-10.437a135.11 135.11 0 00-56.445-36.664m-3.933 53.308c-6.41-23.199-18.872-43.859-35.563-60.254-1.168-.03-2.328-.09-3.508-.09-34.297 0-65.586 12.81-89.406 33.876 22.063-1.704 48.563 3.078 79.254 14.359 17.957 6.602 34.46 10.633 49.223 12.11M443.27 317.57h-5.79v8.5h5.79c3.074 0 5.14-1.77 5.14-4.367 0-2.48-2.066-4.133-5.14-4.133m67.496-10.457H490.57v9.805h3.836v11.223c0 5.312-2.66 8.441-7.027 8.441s-6.969-3.129-6.969-8.441v-11.223h3.84v-9.805h-20.258v9.805h3.84v10.75c0 13.344 7.203 20.488 19.547 20.488 12.344 0 19.547-7.144 19.547-20.488v-10.75h3.84zm-46.883 30.297h-6.2l-3.37-3.957c4.253-2.422 6.617-6.492 6.617-11.691 0-9.27-6.496-14.649-17.66-14.649H421.3v9.805h3.84v20.492h-3.84v9.863h16.18v-11.34h3.606l4.547 5.965v5.375h18.25zm-45.59 4.074c0-3.718-3.129-6.496-6.852-6.496-3.718 0-6.789 2.778-6.789 6.496 0 3.782 3.07 6.614 6.79 6.614 3.722 0 6.851-2.832 6.851-6.614m213.66-58.879h300.113v25.82H613.93c-35.125 42.708-88.278 70.016-147.899 70.016-59.617 0-112.77-27.308-147.894-70.015H0v-25.82zm300.113-75.32V177.56h-74.812v29.726h18.453v-9.726h7.402v36.691h-11.382v18.457h45.863V234.25h-11.383v-36.691h7.402v9.726zm-145.21 26.965v18.457h65.863v-25.64h-18.457v6.41h-17.125v-9.504H842v-17.57h-24.863v-9.618h17.125v6.41h18.457V177.56h-65.864v18.343h7.184v38.348zm-88.079 0v18.457h30.387V238.34l9.39-9.836 5.973 8.512v15.691h39.563V234.25h-13.703l-15.582-22.766 14.918-15.582h12.707V177.56h-39.121v15.691l-14.145 15.473v-31.164h-30.387v18.343h7.184v38.348zm-37.578.773c-6.847 0-12.379-2.43-14.918-7.625h-19.89v25.309h18.566v-5.309c5.3 4.645 12.598 6.965 21.324 6.965 17.242 0 28.074-9.172 28.074-25.086 0-13.261-7.515-19.226-19.785-21.882l-15.578-3.422c-3.539-.664-5.75-1.993-5.75-4.754 0-3.094 2.766-4.531 6.746-4.531 6.074 0 10.051 2.984 11.711 6.851h21.547v-23.98h-18.344v4.308c-5.746-4.527-13.261-5.965-19.668-5.965-15.804 0-28.625 8.508-28.625 24.864 0 12.043 6.743 19.117 21.551 22.21l14.918 3.204c4.535.996 5.637 2.988 5.637 4.754 0 2.32-2.211 4.09-7.516 4.09m-75.367-15.915l-7.07-19.336-6.965 19.336zm7.18 33.598v-14.148l-.442-1.215h-27.293l-.441 1.105v14.258h-30.39V234.25h8.175l15.695-38.348h-7.187V177.56h40.781l23.317 56.691h8.394v18.457zm-105.094-18.125h12.375c6.187 0 8.844-2.32 8.844-6.3 0-3.755-2.325-5.634-8.508-5.634h-12.711zm0-27.187h10.055c5.304 0 8.066-2.54 8.066-6.188 0-4.09-2.762-5.86-8.18-5.86h-9.941zM464.82 234.25v-38.348h-7.183V177.56h45.199c16.574 0 26.41 8.07 26.41 20.113 0 6.52-3.426 14.144-10.168 16.687 8.621 1.989 13.485 9.5 13.485 17.016 0 12.82-9.618 21.332-26.852 21.332h-48.074V234.25zm-13.043-26.965V177.56h-74.816v29.726h18.457v-9.726h7.402v36.691h-11.379v18.457h45.86V234.25h-11.387v-36.691h7.41v9.726zm-145.21 26.965v18.457h65.867v-25.64h-18.457v6.41h-17.13v-9.504h24.864v-17.57h-24.863v-9.618h17.129v6.41h18.457V177.56h-65.868v18.343h7.184v38.348zm-71.169 0v18.457h65.86v-25.64h-18.453v6.41H265.68v-9.504h24.86v-17.57h-24.86v-9.618h17.125v6.41h18.453V177.56h-65.86v18.343h7.184v38.348zm-52.05-21.219h10.828c5.742 0 9.61-3.312 9.61-8.176 0-4.64-3.868-7.738-9.61-7.738h-10.828zM160.25 234.25v-38.348h-7.184V177.56h41.11c20.883 0 33.043 10.054 33.043 27.406 0 9.722-4.422 17.351-12.38 21.883l6.298 7.402h11.605v18.457h-34.148v-10.059l-8.512-11.16h-6.734v21.219h-30.282V234.25zm-13.043-26.965V177.56h-74.82v29.726h18.457v-9.726h7.402v36.691H86.867v18.457h45.86V234.25h-11.383v-36.691h7.406v9.726zM42.332 230.934c0-1.766-1.11-3.758-5.637-4.754l-14.922-3.203C6.97 219.883.227 212.809.227 200.766c0-16.356 12.816-24.864 28.617-24.864 6.414 0 13.93 1.438 19.676 5.965v-4.308h18.343v23.98h-21.55c-1.657-3.867-5.637-6.851-11.715-6.851-3.977 0-6.743 1.437-6.743 4.53 0 2.762 2.215 4.09 5.747 4.755l15.582 3.422c12.265 2.656 19.78 8.62 19.78 21.882 0 15.914-10.827 25.086-28.066 25.086-8.734 0-16.023-2.32-21.328-6.965v5.309H0v-25.309h19.895c2.543 5.196 8.066 7.625 14.921 7.625 5.301 0 7.516-1.77 7.516-4.09"/></svg>
