<svg width="139" height="17" fill="none" xmlns="http://www.w3.org/2000/svg"><path d="M10.394 2.274L8.546 3.909c-.437-.6-1.075-.9-1.914-.9-.436 0-.84.12-1.21.36-.36.23-.54.573-.54 1.03 0 .306.114.557.343.753.24.197.61.382 1.112.556 1.058.371 1.849.824 2.372 1.358.534.523.802 1.205.802 2.045 0 .665-.142 1.259-.426 1.782a3.218 3.218 0 01-1.145 1.21 5.398 5.398 0 01-1.52.655 6.221 6.221 0 01-1.686.23c-.86 0-1.69-.154-2.486-.459-.785-.316-1.4-.763-1.848-1.341l2.012-1.636c.229.35.567.633 1.014.85.447.219.9.328 1.358.328.523 0 .965-.115 1.324-.344.36-.24.54-.594.54-1.063 0-.37-.152-.676-.458-.916-.294-.24-.741-.463-1.341-.67-.872-.295-1.548-.671-2.028-1.129-.48-.469-.72-1.129-.72-1.98 0-1.155.447-2.082 1.341-2.78C4.336 1.14 5.45.785 6.78.785c.698 0 1.38.136 2.045.409.676.262 1.2.622 1.57 1.08zM14.859 12.905c-1.2 0-2.192-.327-2.977-.981-.774-.654-1.162-1.521-1.162-2.6 0-1.397.453-2.585 1.358-3.566.916-.982 2.12-1.473 3.615-1.473 1.221 0 2.224.328 3.01.982.784.643 1.177 1.51 1.177 2.6 0 1.418-.458 2.612-1.374 3.583-.916.97-2.132 1.455-3.647 1.455zm2.437-4.76c0-.501-.158-.91-.475-1.226-.305-.327-.72-.49-1.243-.49-.676 0-1.226.255-1.652.768-.425.512-.638 1.128-.638 1.848 0 .502.153.91.458 1.227.306.316.72.474 1.243.474.687 0 1.244-.25 1.669-.752.425-.513.638-1.129.638-1.848zM27.878.164l-.474 2.093a1.753 1.753 0 00-.687-.13c-.73 0-1.194.512-1.39 1.537l-.148.867h1.832l-.343 1.963h-1.8l-1.095 6.182h-2.569L22.3 6.494h-1.488l.343-1.963h1.44l.163-.834c.099-.524.23-.987.393-1.39a4.7 4.7 0 01.67-1.146c.295-.37.677-.654 1.145-.85C25.447.104 26.009 0 26.651 0c.502 0 .91.055 1.227.164z" fill="#fff"/><path d="M27.855 6.51h-1.341l.36-1.98h1.292l.376-2.158h2.552l-.376 2.159h1.733l-.36 1.979h-1.684l-.589 3.19a4.385 4.385 0 00-.033.441c0 .469.284.703.85.703.219 0 .459-.032.72-.098l-.245 1.881c-.392.164-.872.246-1.44.246-1.69 0-2.535-.66-2.535-1.98 0-.327.033-.638.099-.932l.621-3.451zM49.859 12.676h-2.666l1.521-8.292h-.065l-4.498 8.292h-1.914l-1.538-8.292h-.065l-1.39 8.292h-2.552l2.044-11.58h3.812l1.34 7.508h.066l3.91-7.508h4.04l-2.045 11.58zM60.607 9.307h-5.839a.603.603 0 00-.016.147c0 .436.18.79.54 1.063.36.262.779.393 1.259.393.763 0 1.412-.284 1.946-.85l1.652 1.291c-.981 1.047-2.257 1.57-3.827 1.57-1.167 0-2.127-.321-2.879-.964-.752-.655-1.128-1.554-1.128-2.7 0-1.406.463-2.584 1.39-3.532.927-.96 2.099-1.44 3.516-1.44 1.09 0 1.963.306 2.618.916.654.6.98 1.44.98 2.52 0 .49-.07 1.019-.212 1.586zm-2.126-1.603c.01-.076.016-.185.016-.327 0-.371-.136-.67-.409-.9-.261-.24-.621-.36-1.08-.36-.534 0-.986.17-1.357.507-.37.328-.605.687-.703 1.08h3.533zM68.98 5.578l.9-5.267h2.617l-2.192 12.365h-2.404l.196-1.112h-.049c-.61.872-1.532 1.309-2.764 1.309-1.036 0-1.86-.322-2.47-.965-.6-.655-.9-1.5-.9-2.536 0-1.406.426-2.6 1.276-3.582.862-.981 1.936-1.472 3.222-1.472 1.21 0 2.056.42 2.536 1.26h.032zm-4.465 3.45c0 .502.147.917.442 1.244.294.316.709.474 1.243.474.654 0 1.2-.256 1.635-.769.448-.512.671-1.123.671-1.831 0-.502-.158-.911-.474-1.227-.306-.327-.715-.49-1.227-.49-.676 0-1.227.25-1.652.752-.425.49-.638 1.106-.638 1.848zM75.102 12.676h-2.6l1.422-8.145h2.633l-1.455 8.145zM77.114 1.8c0 .436-.148.807-.442 1.112a1.409 1.409 0 01-1.08.458c-.414 0-.757-.125-1.03-.376a1.24 1.24 0 01-.392-.932c0-.436.147-.807.441-1.112A1.514 1.514 0 0175.723.49c.404 0 .736.125.998.376.262.25.393.561.393.932zM85.356 6.919c0 .338-.032.67-.098.998l-.556 3.173a9.411 9.411 0 00-.163 1.586h-2.323c0-.207.022-.496.065-.867h-.032c-.6.71-1.429 1.064-2.486 1.064-.677 0-1.265-.175-1.767-.524-.502-.349-.752-.894-.752-1.636 0-2.115 1.864-3.173 5.594-3.173a2.29 2.29 0 00.032-.376c0-.61-.425-.916-1.276-.916-.752 0-1.466.256-2.142.769l-1.08-1.505a5.571 5.571 0 011.669-.9 5.932 5.932 0 011.913-.327c1.025 0 1.849.224 2.47.671.622.436.932 1.09.932 1.963zM82.69 9.11h-.229c-1.886 0-2.83.392-2.83 1.177 0 .556.36.834 1.08.834.49 0 .905-.152 1.243-.457.35-.306.567-.693.655-1.162l.081-.392zM96.914 10.615c.687-.021 1.248-.136 1.685-.343l.376-2.176h-2.257l.408-2.24h4.76l-1.063 6.117c-1.297.676-2.72 1.014-4.269 1.014-1.668 0-3.01-.453-4.024-1.357-1.003-.917-1.505-2.143-1.505-3.68 0-2.007.655-3.703 1.963-5.088 1.309-1.384 2.939-2.077 4.89-2.077.928 0 1.762.147 2.503.442.753.294 1.336.72 1.751 1.276l-1.98 1.782c-.512-.741-1.286-1.112-2.322-1.112-1.112 0-2.056.442-2.83 1.325-.763.872-1.145 1.92-1.145 3.14 0 .884.267 1.603.802 2.16.545.545 1.297.817 2.257.817zM106.483 5.725h.033c.599-.938 1.352-1.407 2.257-1.407.196 0 .381.022.556.066l-.425 2.322a2.338 2.338 0 00-.655-.082c-.676 0-1.188.197-1.537.59a2.598 2.598 0 00-.622 1.275l-.736 4.187h-2.617l1.161-6.46c.11-.546.191-1.107.246-1.685h2.486a12.32 12.32 0 01-.147 1.194zM113.078 12.905c-1.2 0-2.192-.327-2.977-.981-.775-.654-1.162-1.521-1.162-2.6 0-1.397.453-2.585 1.358-3.566.916-.982 2.121-1.473 3.615-1.473 1.221 0 2.224.328 3.009.982.785.643 1.178 1.51 1.178 2.6 0 1.418-.458 2.612-1.374 3.583-.916.97-2.132 1.455-3.647 1.455zm2.437-4.76c0-.501-.158-.91-.475-1.226-.305-.327-.719-.49-1.243-.49-.676 0-1.226.255-1.652.768-.425.512-.638 1.128-.638 1.848 0 .502.153.91.458 1.227.306.316.72.474 1.243.474.687 0 1.243-.25 1.669-.752.425-.513.638-1.129.638-1.848zM124.494 11.499h-.049a3.065 3.065 0 01-1.063 1.014 2.99 2.99 0 01-1.489.376c-.85 0-1.494-.234-1.93-.703-.436-.47-.654-1.064-.654-1.783 0-.338.027-.633.082-.883l.867-4.99h2.633l-.785 4.417a5.245 5.245 0 00-.065.687c0 .73.359 1.096 1.079 1.096.447 0 .818-.17 1.112-.507.306-.35.507-.78.606-1.292l.785-4.4h2.617l-1.145 6.46a16.623 16.623 0 00-.246 1.685h-2.486l.066-.605c.032-.305.054-.496.065-.572zM131.81 11.662l-.851 4.94h-2.617l2.126-12.071h2.487l-.197 1.128h.049c.644-.883 1.532-1.325 2.666-1.325 1.047 0 1.876.328 2.487.982.621.654.932 1.494.932 2.519 0 1.417-.431 2.617-1.292 3.598-.851.982-1.925 1.472-3.222 1.472-1.211 0-2.056-.414-2.536-1.243h-.032zm4.465-3.484c0-.501-.147-.916-.442-1.243-.294-.327-.703-.49-1.226-.49-.655 0-1.205.261-1.652.785-.448.512-.671 1.123-.671 1.832 0 .501.153.915.458 1.243.316.316.736.474 1.259.474.676 0 1.222-.245 1.636-.736.425-.502.638-1.123.638-1.865z" fill="#fff"/></svg>
