<svg width="25" height="24" xmlns="http://www.w3.org/2000/svg"><rect x=".132" y=".129" width="23.871" height="23.871" rx="8"/><path fill-rule="evenodd" clip-rule="evenodd" d="M19.66 8.352c.11-.369 0-.64-.527-.64h-1.741c-.443 0-.647.234-.758.493 0 0-.885 2.158-2.14 3.56-.405.405-.59.534-.81.534-.111 0-.272-.129-.272-.498V8.352c0-.443-.128-.64-.497-.64h-2.736c-.276 0-.443.206-.443.4 0 .42.627.517.692 1.697v2.564c0 .562-.102.664-.323.664-.59 0-2.026-2.168-2.877-4.648-.167-.482-.335-.677-.78-.677h-1.74c-.498 0-.597.234-.597.493 0 .46.59 2.748 2.748 5.773 1.439 2.065 3.465 3.185 5.31 3.185 1.107 0 1.243-.249 1.243-.677v-1.561c0-.498.105-.597.455-.597.259 0 .701.13 1.735 1.125 1.18 1.18 1.374 1.71 2.038 1.71h1.741c.498 0 .747-.249.603-.74-.157-.489-.72-1.198-1.468-2.04-.406-.48-1.015-.996-1.2-1.254-.257-.332-.184-.48 0-.774 0 0 2.122-2.988 2.343-4.003z" fill="#616161"/></svg>
