<svg width="24" height="24" xmlns="http://www.w3.org/2000/svg"><rect y=".129" width="23.871" height="23.871" rx="8"/><path fill-rule="evenodd" clip-rule="evenodd" d="M18.326 12.149a1.67 1.67 0 00-1.175-1.175c-1.043-.285-5.216-.285-5.216-.285s-4.172 0-5.215.274a1.704 1.704 0 00-1.175 1.186c-.274 1.043-.274 3.206-.274 3.206s0 2.174.274 3.206a1.67 1.67 0 001.175 1.175c1.054.286 5.215.286 5.215.286s4.173 0 5.216-.275a1.67 1.67 0 001.175-1.175c.274-1.043.274-3.206.274-3.206s.011-2.174-.274-3.217zm-2.722 4.262v.194c0 .245.007.432.021.554.015.122.043.215.094.266.043.057.115.086.215.086.13 0 .216-.05.266-.151.05-.1.072-.266.08-.503l.74.043c.007.036.007.08.007.137 0 .352-.094.618-.288.79-.194.172-.467.259-.819.259-.424 0-.719-.137-.891-.403-.173-.265-.259-.675-.259-1.236v-.668c0-.575.086-.992.266-1.258.18-.265.482-.395.905-.395.295 0 .525.058.683.166.158.107.266.28.33.503.065.23.094.546.094.948v.654h-1.444v.014zm.108-1.61a.548.548 0 00-.087.267 5.29 5.29 0 00-.021.56v.273h.632v-.273c0-.244-.007-.431-.021-.56a.492.492 0 00-.094-.266.26.26 0 00-.201-.08c-.1-.006-.165.022-.208.08zm-4.262 3.242v-3.83h-.862v3.04a.35.35 0 01-.151.172.369.369 0 01-.216.072c-.086 0-.15-.036-.186-.108-.036-.072-.058-.194-.058-.367v-2.81h-.862v2.86c0 .36.057.619.18.784.122.165.308.251.56.251.366 0 .647-.18.826-.531h.022l.072.467h.675zm-2.076-4.55h-.856v4.542h-.84v-4.541h-.855v-.697h2.55v.697zm4.678.806c.115.107.2.28.251.524.05.237.072.575.08 1.013v.604c0 .568-.073.992-.21 1.258-.136.266-.344.402-.639.402a.933.933 0 01-.445-.115.734.734 0 01-.302-.309h-.022l-.086.36h-.711v-5.433h.833v2.02h.007a.88.88 0 01.317-.353.775.775 0 01.445-.136c.201 0 .367.057.482.165zm-.575 2.738c.021-.159.036-.374.036-.654h.007v-.503c0-.295-.007-.525-.029-.69-.021-.158-.05-.273-.1-.345a.233.233 0 00-.202-.1.349.349 0 00-.23.1.588.588 0 00-.15.259v2.17a.415.415 0 00.143.15c.058.037.122.05.194.05a.28.28 0 00.216-.1.73.73 0 00.115-.337z" fill="#616161"/><path d="M11.127 9.239c-.172-.115-.295-.295-.366-.546-.072-.245-.108-.575-.108-.978v-.553c0-.41.043-.74.122-.992.086-.251.216-.43.388-.546.18-.115.41-.172.697-.172.28 0 .51.057.683.172.172.115.294.302.373.546.08.245.123.575.123.992v.553c0 .41-.036.733-.115.985-.08.244-.202.43-.374.546-.173.115-.41.172-.704.172-.302-.007-.546-.064-.719-.18zm.97-.604c.05-.122.072-.33.072-.61V6.83c0-.273-.021-.474-.072-.603-.05-.13-.13-.187-.251-.187-.115 0-.202.065-.245.187-.05.13-.072.33-.072.603v1.193c0 .28.022.489.072.611.043.122.13.187.252.187.115 0 .194-.058.244-.187zM9.029 7.65L8.05 4.109h.855l.345 1.602c.087.396.151.733.194 1.014h.022c.029-.202.093-.532.194-1.006l.36-1.61h.854L9.884 7.65v1.695h-.848V7.651h-.007zM15.82 5.524v3.83h-.676l-.072-.467h-.021c-.18.352-.46.531-.827.531-.251 0-.438-.086-.56-.251-.123-.165-.18-.424-.18-.783v-2.86h.862v2.81c0 .172.022.294.058.366.036.072.1.108.187.108a.369.369 0 00.215-.072.35.35 0 00.151-.173v-3.04h.862z" fill="#616161"/></svg>
